<?xml version="1.0" encoding="utf-8"?>
<!-- Generator: Adobe Illustrator 24.0.2, SVG Export Plug-In . SVG Version: 6.00 Build 0)  -->
<svg version="1.1" id="Layer_1" xmlns="http://www.w3.org/2000/svg" xmlns:xlink="http://www.w3.org/1999/xlink" x="0px" y="0px"
	 viewBox="0 0 200 200" style="enable-background:new 0 0 200 200;" xml:space="preserve">
<style type="text/css">
	.st0{fill:#FFFFFF;}
	.st1{fill:#FB8500;}
</style>
<g>
	<path class="st0" d="M-38.98,233.71c0-90.39,0-180.78-0.03-271.17c0-1.02,0.23-1.25,1.25-1.25c90.28,0.03,180.57,0.03,270.85,0.03
		c0.25,0.47,0.13,0.98,0.13,1.47c0.01,89.82,0.01,179.64,0,269.47c0,0.5,0.08,1-0.08,1.49c-0.41,0.44-0.96,0.46-1.51,0.49
		c-0.54,0.03-1.09,0.02-1.63,0.02c-88.62,0-177.23,0-265.85-0.01C-36.91,234.24-38.05,234.52-38.98,233.71z"/>
	<path class="st1" d="M87.49,99.33c-0.27,1.02-0.22,2.06-0.2,3.09c0.13,0.52,0.24,1.04-0.07,1.54c-0.27,0.93-0.21,1.88-0.19,2.82
		c0.1,2.16,0.05,4.3-0.35,6.43c-0.24,0.33,0.06,1.1-0.76,0.96c-0.71,0.28-1.14-0.22-1.6-0.61c-0.14-0.2-0.35-0.27-0.58-0.26
		c-0.93,0.06-1.72-0.18-2.18-1.08c-0.18-0.1-0.36-0.19-0.53-0.29c-0.19-0.05-0.35-0.16-0.47-0.32c-0.2-0.74-0.61-1.22-1.38-1.52
		c-0.75-0.3-1.64-0.67-1.42-1.82c0.05-0.26-0.16-0.29-0.33-0.32c-1.41-0.26-2.15-1.58-3.39-2.13c-0.41-0.18-0.44-0.76-0.48-1.22
		c-0.09-1.26-0.1-1.27-1.21-0.54c-0.25,0.16-0.49,0.22-0.77,0.13c-1.42-1.35-2.4-3-3.39-4.67c-1.3-2.19-2.06-4.59-2.84-6.97
		c-0.63-1.91-0.97-3.91-0.94-5.95c0-2.27,0-4.54,0-6.81c0.06-2.63,0.2-5.25,1.69-7.56c0.07-0.2,0.15-0.41,0.22-0.61
		c-0.04-2.01,1.37-3.33,2.33-4.87c0.05-0.1,0.1-0.2,0.14-0.3c-0.04-0.57,0.26-0.88,0.78-1.03c1.11,0.17,1.87,0,2.07-1.39
		c0.16-1.11,1.18-0.65,1.89-0.66c-0.62-0.7-0.18-2.46,0.75-2.62c0.8-0.14,1.25-0.39,1.48-1.25c0.13-0.5,0.68-0.96,1.39-0.79
		c0.13,0.12-0.06-0.02,0.08,0.1c0.1,0.09,0.2,0.17,0.31,0.22c-0.07-0.14-0.26-0.09-0.33-0.24c0.44-1.02,0.71-2.21,2.17-2.26
		c0.54-0.02,0.58-0.51,0.74-0.85c0.46-0.93,1.24-1.43,2.19-1.19c1.35,0.34,1.97-0.17,2.23-1.41c0.04-0.18,0.13-0.33,0.24-0.48
		c0.39-0.47,0.93-0.78,1.49-0.83c1.55-0.13,2.96-0.98,4.55-0.88c0.41,0.02,0.82,0.02,1.19-0.21c0.78-0.98,1.89-0.33,2.82-0.48
		c2.28-0.36,4.59-0.03,6.88,0.2c0.19,0.02,0.33,0.13,0.44,0.28c0.37,0.23,0.78,0.24,1.19,0.22c3.64,0.48,7.1,1.48,10.16,3.62
		c0.32,0.49,0.49,1.05,0.72,1.59c0.1,0.24,0.13,0.5,0.52,0.49c1.5-0.07,1.72,1.21,2.23,2.17c-0.09,0.15-0.26,0.18-0.48,0.33
		c0.27-0.12,0.41-0.22,0.52-0.37c0.17-0.08,0.43-0.13,0.51,0c0.88,1.33,2.47,1.95,3.31,3.31c0.32,0.51,0.43,0.98-0.32,1.36
		c1.35-0.35,2.16-0.04,2.21,1.41c0.01,0.34,0.22,0.54,0.56,0.68c1.66,0.67,2,1.14,1.7,2.95c-0.13,0.79,0.06,0.92,0.73,1.1
		c0.82,0.22,1.19,0.92,1.2,1.78c0.01,0.54-0.09,1.09,0.03,1.63c0.07,0.32,0.05,0.78,0.61,0.35c0.22-0.17,0.46,0.09,0.45,0.32
		c-0.03,0.69,0.69,0.46,0.93,0.8c0.85,1.7,0.92,3.52,0.82,5.37c0,2.27,0,4.54,0.01,6.82c0.13,2.04-0.4,3.99-0.94,5.91
		c-0.23,0.83-0.46,1.74-1.04,2.46c-0.2,0.16-0.25,0.38-0.25,0.61c0.18,1.28-0.67,2.09-1.36,2.96c-0.11,0.19-0.22,0.37-0.33,0.56
		c0.09,0.95-0.46,1.5-1.21,1.93c-0.89,0.08-1.62,0.35-1.96,1.33c-0.33,0.95-1.21,1.13-2.2,1.23c0.1,0.5,0.77,0.85,0.31,1.4
		c-0.31,0.38-0.52,0.8-1.03,1.02c-1.13,0.51-1.79,1.83-3.2,1.87c-0.12,1.93-2.4,2.13-2.96,3.7c-0.12,0.16-0.28,0.27-0.48,0.32
		c-0.15,0.02-0.29,0.04-0.44,0.06c-0.04,0.02-0.08,0.05-0.12,0.05c-0.72,0.04-1.35,0.8-2.05,0.49c-0.68-0.3-0.27-1.28-0.75-1.8
		c0.15-0.78-0.51-1.58,0.07-2.34c0.03-1.48,0.07-2.97-0.21-4.44c-0.42-0.98-0.24-2.03-0.28-3.03c-0.14-3.39-0.25-6.79-0.5-10.17
		c-0.03-0.37-0.08-0.82,0.27-1.13c0.51-0.16,1.11,0.2,1.56-0.29c-0.08-0.35-0.31-0.53-0.65-0.59c-0.93-0.18-1.39-0.71-1.4-1.69
		c-0.01-0.99,0.4-1.63,1.32-1.98c0.42-0.16,0.82-0.37,1.19-0.64c0.52-0.35,0.99-0.76,1.31-1.32c1.11-1.85,0.73-3.86,0.63-5.83
		c-0.13-2.53-0.52-5.04-0.42-7.58c0.13-1.16,0.39-2.29,0.26-3.49c-0.06-0.59-0.16-0.81-0.74-0.78c-0.36,0.02-0.72,0-1.08-0.04
		c-0.43-0.05-1.04,0.03-1.03-0.59c0-0.63,0.64-0.49,1.05-0.61c0.13-0.04,0.27-0.01,0.29,0c-0.91,0.03-1.95-0.11-2.9,0.44
		c-0.15,0.09-0.39,0.04-0.52,0.12c-0.56,0.34-0.66-0.91-1.37-0.33c-0.52,0.42-1.22-0.01-1.84-0.1c-1.08-0.16-1.62,0.22-1.8,1.31
		c-0.13,0.76-0.16,1.56-0.01,2.3c0.22,1.1,0.32,2.15-0.3,3.14c-0.31,0.5,0.18,0.53,0.38,0.75c0.41,1.15,0.27,2.34,0.12,3.5
		c-0.21,1.58-0.24,3.16-0.34,4.74c-0.14,2.05,0.91,3.53,2.6,4.59c0.23,0.14,0.48,0.25,0.72,0.38c1.95,1.03,1.99,2.56-0.02,3.87
		c1.21,0.56,1.19,1.65,1.07,2.64c-0.34,2.88-0.24,5.78-0.44,8.66c-0.02,0.26,0.08,0.55-0.18,0.75c-0.27,1.57-0.23,3.15-0.21,4.73
		c0.11,2.06,0.07,4.12-0.14,6.17c-0.05,0.54-0.08,1.09,0,1.63c0.14,1.01-0.21,1.75-1.22,1.91c-1.9,0.31-3.77,0.88-5.73,0.65
		c-1.45,0-2.91,0-4.36,0c-1.14,0.37-2.23-0.05-3.32-0.25c-0.74-0.13-0.94-0.79-0.96-1.46c-0.04-1.48-0.41-2.93-0.11-4.45
		c0.24-1.23-0.05-2.52-0.17-3.78c-0.17-1.73-0.28-3.47-0.33-5.21c-0.05-1.12,0.1-2.25-0.1-3.37c-0.12-0.6,0.08-1.24-0.17-1.83
		c-0.18-1.02-0.41-2.05,0.99-2.41c0.17-0.1,0.36-0.19,0.19-0.44c-0.11-0.05-0.21-0.09-0.33-0.11c-0.71-0.08-1.19-0.42-1.23-1.17
		c-0.05-0.9-0.15-1.83,0.92-2.29c4.98-1.23,7.14-6,6.5-10.65c-0.52-3.75-1.92-7.06-4.35-9.95c-2.42-2.88-4.31-3.03-6.88-0.26
		c-3.52,3.79-5.12,8.34-4.57,13.49c0.41,3.74,2.6,6.18,6.17,7.38c0.35,0.14,0.68,0.33,0.88,0.67c0.25,0.84,0.35,1.66-0.24,2.41
		c-0.26,0.25-0.59,0.32-0.91,0.41c-0.23,0.45-0.23,0.45,0.74,0.67c0.12,0.05,0.22,0.13,0.31,0.22c0.07,0.11,0.12,0.23,0.15,0.36
		c0.02,0.28-0.03,0.53-0.3,0.69c-0.3,1.1-0.23,2.23-0.22,3.35C87.7,98.5,87.8,98.92,87.49,99.33z"/>
	<path class="st1" d="M109.27,41.62c-0.2,0.19-0.41,0.37-0.61,0.56c-0.24,0.59-0.75,0.84-1.3,1.05c-0.16,0.12-0.33,0.24-0.49,0.36
		c-1.13,1.4-2.63,2.15-4.38,2.44c-0.23-0.01-0.43,0.06-0.58,0.26c-2.67,1.68-3.09,1.55-3.4-1.47c-0.15-1.45-0.56-2.94-0.05-4.41
		c0.21-0.75,0.22-1.51,0.21-2.28c0-1.86,0.21-3.66,1.41-5.19c1.05-0.25,1.72-0.89,2.07-1.92c0.15-0.45,0.34-0.98,1.01-0.9
		c0.14,0.11-0.05-0.03,0.1,0.08c0.07,0.05,0.14,0.15,0.2,0.15c0.1-0.01,0.09-0.04-0.04-0.02c-0.18,0.02,0.07,0-0.1-0.08
		c-0.4-0.41-0.19-0.87-0.12-1.33c0.07-0.11,0.15-0.19,0.26-0.26c0.29-0.15,0.6-0.18,0.91-0.19c1.08-0.04,1.49-0.61,1.33-1.64
		c1.49-1.58,3.52-1.9,5.49-2.35c0.2-0.07,0.4-0.13,0.59-0.2c0.48-0.36,0.97-0.66,1.57-0.22c0.02,0.38,0,0.77,0.26,1.1
		c0.96,1.67,0.75,3.51,0.62,5.29c-0.11,1.57,0.13,3.23-0.88,4.64c-0.07,0.2-0.14,0.41-0.22,0.61c-0.15,1.27-0.52,2.41-1.51,3.33
		C110.77,39.82,110.62,41.26,109.27,41.62z"/>
	<path class="st1" d="M133.21,136.32c0.1,0.06,0.2,0.12,0.3,0.18c0.67,0.08,1.2,0.34,1.3,1.09c0.09,0.09,0.18,0.18,0.28,0.27
		c1.35,1.27,1.34,1.33-0.33,2.12c-0.19,0-0.36,0.03-0.45,0.22c-1.51,1.33-1.8,1.32-2.97-0.14c-0.75-0.94-3.42-1.7-4.55-1.21
		c-0.86,0.37-1.76,0.67-2.58,1.14c-0.08,0.06-0.16,0.13-0.25,0.19c-0.06,0.46-0.24,0.86-0.45,1.27c-1.24,2.39-0.83,4.9,1.07,6.54
		c1.97,1.7,4.57,1.78,6.76,0.2c0.33-0.24,0.66-0.48,0.9-0.82c0.15-0.29,0.17-0.54-0.22-0.65c-1.45-0.09-2.9-0.03-4.34-0.04
		c-0.94-0.01-1.45-0.33-1.35-1.37c0.06-0.54,0.01-1.08,0.01-1.63c-0.01-0.95,0.46-1.09,1.22-0.72c2.81,0,5.62,0,8.43,0
		c1.37-0.41,1.52-0.28,1.38,1.13c0,0.09,0,0.19,0,0.28c0.14,0.44,0.22,0.88-0.05,1.31c-0.17,0.65-0.33,1.31-0.5,1.96
		c-0.43,2.48-2.82,4.65-5.74,5.19c-0.31-0.01-0.62,0.01-0.88,0.23c-0.14,0.17-0.31,0.2-0.49,0.07c-1.18-0.01-2.35-0.01-3.53-0.02
		c-2.36,0.1-5.22-1.66-5.91-3.62c-1.46-0.96-1.82-2.4-1.74-4.03c0-0.91-0.01-1.81-0.01-2.72c-0.05-2.95,2.19-6.05,4.93-6.83
		c0.38-0.17,0.76-0.34,1.14-0.51C127.65,133.86,130.55,133.98,133.21,136.32z"/>
	<path class="st1" d="M44.83,136.23c0.18-0.1,0.35-0.21,0.53-0.31c0.87-1.02,2.13-1.13,3.31-1.24c1.91-0.18,3.82-0.25,5.59,0.89
		c1.13,0.73,2.44,1.16,3.31,2.27c2.28,2.92,3.14,7.09,1.14,10.07c-0.09,0.18-0.18,0.36-0.28,0.54c-0.7,2.13-2.34,3.33-4.27,4.16
		c-0.4,0.17-0.91,0.43-1.43,0.26c-1.53,0.38-3.09,0.32-4.64,0.24c-1.65-0.23-3.3-0.45-4.31-2.03c-0.19-0.17-0.37-0.33-0.56-0.5
		c-1.63-0.75-3.18-3.94-2.76-5.67c0-0.63,0.01-1.27,0.01-1.9c-0.41-0.68-0.08-1.38,0.14-1.94c0.73-1.79,1.77-3.41,3.35-4.61
		C44.2,136.26,44.49,136.16,44.83,136.23z"/>
	<path class="st1" d="M76.36,144.07c-0.1,0.19-0.2,0.37-0.3,0.56c-0.2,0.82-0.61,1.5-1.33,1.96c-0.61,0.39-0.58,0.91-0.2,1.39
		c0.94,1.2,1.53,2.66,2.77,3.62c0.33,0.25,0.57,0.65,0.45,1.07c-0.15,0.52-0.65,0.39-1.04,0.4c-0.72,0.02-1.45-0.06-2.17,0.02
		c-1.18,0.14-2.11-0.29-2.61-1.29c-0.56-1.14-1.64-1.91-2.04-3.14l0.01,0.01c-0.35-0.21-0.66-0.49-1.03-0.64
		c-1.44-0.59-2.26-0.05-2.29,1.51c-0.01,0.36,0.04,0.73,0,1.08c-0.09,0.8,0.48,2.01-0.52,2.3c-1.15,0.34-2.47,0.46-3.67-0.16
		c-0.12-0.06-0.14-0.23-0.19-0.35c0.36-5.29,0.08-10.59,0.16-15.89c0.02-1.58,0.21-1.8,1.81-1.81c2.3-0.02,4.61-0.08,6.89,0.26
		c2.37-0.1,3.9,1.29,5.18,3.03c1.03,1.41,1.38,3,0.93,4.72C77.03,143.26,76.88,143.77,76.36,144.07z"/>
	<path class="st1" d="M111.19,144.93c0.44-0.12,0.46-0.12,0.46-0.57c0.01-2.53,0-5.07,0.01-7.6c0-0.54-0.09-1.09,0.16-1.61
		c0.77-0.18,1.52-0.59,2.33-0.47c0.64,0.1,1.38,0.19,1.54,1.05c0.01,5.63,0,11.27,0.01,16.9c0.06,0.67-0.18,0.95-0.86,0.66
		c-0.51-0.22-0.9-0.59-1.31-0.95c-2.21-1.95-4.3-4.05-6.56-5.94c-0.98-0.82-2.03-1.6-3.19-2.61c-0.26,1.48-0.23,2.77-0.32,4.04
		c-0.11,1.65,0.25,3.31-0.15,4.95c-3.83,0.38-3.83,0.38-3.83-3.31c0-4.44-0.01-8.87,0.02-13.31c0-0.45-0.29-1.01,0.29-1.34
		c2.05,0.96,3.4,2.78,5.1,4.17c2,1.65,3.76,3.58,5.86,5.12C110.98,144.32,111.17,144.58,111.19,144.93z"/>
	<path class="st0" d="M111.46,84.66c-0.44,0.39-0.92,0.75-1.5,0.88c-0.7,0.16-1.07,0.43-0.99,1.28c0.07,0.84,0.05,1.47,1.21,1.4
		c0.73-0.04,1.1,0.42,0.48,1.13c-0.85,0.23-2.12-0.71-2.47,0.93c-0.08,0.4-0.65-0.82-0.81,0.17c-0.09,0.55,0.44,0.62,0.53,0.98
		c0.02,0.08,0.03,0.23-0.02,0.26c-1.55,1.12-0.64,2.72-0.73,4.08c-0.2,2.91-0.5,5.82-0.28,8.75c-0.12,0-0.23,0-0.35,0
		c0-1.18,0-2.37,0-3.55c0.11-3.36,0.21-6.71,0.34-10.07c0.03-0.75,0.15-1.48-1.03-1.32c-0.46,0.06-0.79-0.3-0.77-0.76
		c0.01-0.51,0.43-0.66,0.88-0.62c0.7,0.06,1.14-0.13,1.11-0.94c-0.03-0.69,0.23-1.32-0.81-1.69c-3.01-1.05-4.17-3.13-3.9-6.32
		c0.22-2.53,0.31-5.07,0.46-7.6c-0.26-1.17,0.39-2.34-0.02-3.5c0-0.16,0.01-0.31,0.04-0.47c0.09-0.31,0.07-0.63,0.11-0.94
		c0.06-0.54,0.24-0.99,0.87-1.03c0.61-0.04,0.88,0.38,1.07,0.87c0.22,0.56,0.3,1.15,0.28,1.74c-0.08,3.31,0.31,6.62,0.2,9.54
		c-0.13-3.21,0.28-6.79,0.19-10.38c-0.01-0.27,0.02-0.54,0.08-0.81c0.12-0.52,0.34-0.97,0.96-0.96c0.63,0.01,0.87,0.47,0.93,0.99
		c0.14,1.22,0.3,2.44,0.34,3.66c0.1,2.49-0.05,4.98,0.22,7.14c0.12-0.51-0.07-1.35-0.11-2.18c-0.13-2.68,0.35-5.34,0.32-8.02
		c-0.01-0.71,0.03-1.61,1.07-1.57c0.93,0.04,0.96,0.88,0.95,1.54c-0.03,3.58,0.62,7.15,0.26,9.68c0.25-2.53-0.04-6.14,0.42-9.71
		c0.05-0.36,0.08-0.72,0.25-1.05c0.22-0.41,0.58-0.56,1.02-0.52c0.47,0.05,0.62,0.33,0.75,0.8c0.29,1.04-0.24,2.08,0.07,3.1
		c0.21,3.48,0.41,6.96,0.61,10.44c0.08,1.35-0.13,2.62-1.12,3.64c-0.33,0.17-0.54-0.08-0.78-0.23c-0.63-0.32-0.81,0.52-1.32,0.52
		c-4.21,2.03-7.14-0.55-6.83-6.02c-0.28,5.55,2.38,7.89,6.9,6.06C111,83.98,111.43,84.07,111.46,84.66z"/>
	<path class="st1" d="M153.69,150.37c-0.02,0.81-0.03,1.63-0.05,2.44l0,0c-4.45,0.01-8.89,0.02-13.34,0.02
		c-0.41-0.41-0.28-0.93-0.28-1.41c0.04-4.96-0.01-9.92,0.02-14.88c0-0.56-0.19-1.2,0.4-1.62c0.16-0.09,0.33-0.17,0.51-0.17
		c4.07-0.03,8.13-0.16,12.2,0.06c0.17,0.07,0.31,0.18,0.41,0.33c0.28,3.35,0.28,3.31-3.03,3.36c-2.11,0.03-4.23-0.23-6.33,0.15
		c0.04,0.16,0.06,0.31,0.05,0.48c0.17,1.03,0.31,2.05-0.1,3.06c0.37,0.53,0.91,0.23,1.36,0.24c2.02,0.04,4.04,0.06,6.07,0.01
		c0.78-0.02,1.03,0.23,0.97,0.99c-0.06,0.76-0.02,1.53-0.02,2.29c-0.3,0.35-0.69,0.34-1.11,0.32c-1.71-0.08-3.42-0.03-5.12-0.03
		c-0.56,0-1.35-0.23-1.54,0.47c-0.22,0.83-0.41,1.78,0.24,2.56c0.14,0.16,0.35,0.27,0.48,0.46c2.35,0.02,4.69,0.02,7.04,0.06
		c0.44,0.01,1.05-0.26,1.17,0.51C153.78,150.18,153.77,150.28,153.69,150.37z"/>
	<path class="st0" d="M135.96,170.79c-0.48,0.21-0.59,0.69-0.81,1.09l0,0c-0.41,0-0.8,0.04-1.2,0.17c-0.3,0.1-0.21,0.74-0.66,0.47
		c-0.39-0.22-0.26-0.59-0.18-0.97c0.16-0.77,0.53-1.6-1.02-1.21c-1.11,0.28-1.15-0.94-1.41-1.74c-0.15,1.14-0.27,2.26-0.08,3.51
		c-0.62-0.54-1.32-0.52-2.09-0.58c0.21,0.74,0.95,0.44,1.39,0.87c-0.34,0.17-0.64,0.26-0.98,0.18c-1.38-0.35-2.84,0.15-4.27-0.49
		c-0.31-0.14-1.5,0.52-2.42,0.43c0.02-0.17-0.03-0.48,0.09-0.59c1.18-1.02-0.14-1.31-0.55-1.36c-0.81-0.09-1.87-0.51-2.19,0.99
		c-0.21,1-1.81,1.4-2.85,0.9c-0.55-0.27,0.54-0.81-0.1-1.04c-0.42-0.15-1.01,0.91-1.13,0.34c-0.27-1.19-1.01,0.26-1.23-0.36
		c-0.02,0.35-1.07,0.39-0.3,0.98c0.02,0.02-0.04,0.14-0.06,0.21c-0.85-0.5-1.94,0.27-2.72-0.49c-0.49-0.48-0.9-0.93-1.55-0.21
		c-0.28,0.32-0.77,0.31-0.97,0.02c-0.57-0.83-1-0.3-1.71,0.3c0.28-0.95,0.78-1.1,1.34-1.16c0.44-0.04,0.97,0.07,0.97-0.63
		c-0.66-0.75-0.6-1.59,0.09-2.14c0.8-0.64,1.39,0.09,1.9,0.68c0.45,0.51,0.75,1.23,1.6,1.26c0.11-0.5-0.23-0.73-0.41-1.01
		c-0.4-0.61-0.41-1.17,0.08-1.73c0.72-0.82,0.93-1.77,0.46-2.76c-0.51-1.06-1.54-1.11-2.55-1.15c-0.98-0.04-1.98,0.16-2.95-0.2
		c-0.19-0.11-0.28-0.29-0.36-0.49c-0.08-0.55-0.02-0.4,0.4-0.58c0.54-0.23,1.05-0.35,1.62-0.46c1.19-0.23,2.33,0.24,3.5,0.15
		c0.08-0.01,0.23,0.06,0.24,0.1c0.22,2.03,3.07,2.81,2.54,5.1c-0.19,0.84-0.32,1.42,0.47,2.11c0.03-0.72,0.48-0.84,1.03-0.95
		c0.9-0.18,1.35-0.65,0.92-1.68c-0.31-0.74,0.55-2.23,1.32-2.55c0.4-0.17,0.57,0.1,0.74,0.38c0.32,0.59-0.08,1.04-0.3,1.52
		c-0.65,1.39-1.39,2.73-2.06,4.21c1.07-0.4,1.98-1.06,3.2-0.98c1.2,0.08,2.34,0.12,3.12,1.1c0.49-0.34,0.24-0.59,0.14-0.8
		c-0.92-1.77-1.96-3.47-2.76-5.3c-0.3-0.68-0.7-0.18-1.04-0.27c-0.11-0.6-0.21-1.2-0.32-1.82c1.51,0.19,1.52,0.18,2.09,1.54
		c0.13,0.31,0.37,0.45,0.61,0.38c0.69-0.2,0.79,0.45,1.15,0.71l0,0c-0.08,0.43-0.04,0.37,0.32,0.58c0.49,0.29,0.23,0.79,0.11,1.17
		c-0.44,1.4-0.26,1.8,1.11,1.9c0.92,0.07,0.88,0.7,1.02,1.29c0.14,0.6-0.21,1.25,0.17,1.83c0.04,0.06,0.15,0.06,0.17,0.07
		c1.42-1.89,0.83-4.07,0.87-6.15c0.02-0.77,0.28-1.47,0.42-2.34c-0.53,0.09-0.53,0.99-1.15,0.58c-0.42-0.28-0.2-0.67-0.22-0.99
		c-0.03-0.65,0.55-0.79,1.03-0.84c0.62-0.07,1.27-0.12,1.87,0.02c0.63,0.14,1.7,0.08,1.08,1.39c-0.15,0.31,0.02,0.94,0.92,0.76
		c0.98-0.2,1.78-0.06,1.76-1.52c-0.02-1.21,1.37-0.68,1.8-0.63c2.58,0.35,5.11-0.32,7.67-0.12c0.27,0.02,0.53,0,1.02,0
		c-0.66,0.5-1.38,0.01-1.94,0.64c1.03,0.18,1.9,0.51,2.64-0.43c0.41-0.52,0.91-0.12,1.34-0.04c0.46,0.09,0.27,0.48,0.22,0.78
		c-0.04,0.26-0.16,0.54-0.11,0.79c0.32,1.45-0.25,2.04-1.71,2.08c-0.51,0.01-0.75,0.74-0.79,1.2c-0.08,1.13-0.18,2.31,0.07,3.38
		c0.17,0.72,0.06,0.88-0.59,0.86c0.11,0.56,1.24,0.43,0.71,0.92c-0.72,0.67-1.75,1.02-2.82,0.31c1.2-0.42,0.19-0.98,0.14-1.49
		l0.01-0.01c0.09,0,0.19,0,0.28,0c0.94-0.53,1.18-1.36,1.12-2.38c-0.05-0.8-0.04-1.61,0.01-2.42c0.11-1.85,1.02-2.34,2.67-1.46
		c0.47-1.42,0.36-1.62-1.02-1.63c-1.4-0.01-2.8,0.02-4.21-0.01c-0.74-0.02-1.19,0.25-1.02,1.01c0.23,1.03-0.79,1.35-1.14,2.47
		c-0.13-0.92-0.16-1.52-0.3-2.08c-0.11-0.44-0.43-0.93-0.9-0.88c-0.53,0.05-0.39,0.63-0.39,1.01
		C135.96,166.53,135.96,168.66,135.96,170.79L135.96,170.79z"/>
	<path class="st1" d="M79.99,149.03c0.06-0.1,0.11-0.2,0.17-0.3c-0.21-0.49,0.06-0.88,0.29-1.26c1.97-3.32,3.63-6.79,5.42-10.2
		c0.31-0.6,0.56-1.24,1.22-1.58c0.25-0.23,0.41-0.51,0.46-0.85c0.78-0.1,0.98,0.54,1.21,1.04c0.34,0.73,0.68,1.46,0.91,2.24
		c0.1,0.19,0.2,0.38,0.3,0.56c0.46,0.25,0.73,0.67,0.96,1.11c1.53,2.91,3.17,5.76,4.56,8.75c0.49,1.05,1.25,1.97,1.69,3.05
		c0.48,1.19,0.31,1.46-0.93,1.49c-0.72,0.02-1.44,0.01-2.16,0c-0.45-0.01-0.93,0.04-1.1-0.54c-0.06-0.42-0.27-0.77-0.55-1.08
		c-0.41-0.16-0.43-0.62-0.7-0.89c-0.1-0.1-0.22-0.17-0.36-0.19c-1.9-0.05-3.8-0.02-5.7-0.02c-1,0-1.9,0.28-2.33,1.3
		c-0.5,1.19-1.37,1.57-2.6,1.43c-0.58-0.07-1.18,0.01-1.76-0.02c-1.05-0.05-1.37-0.53-0.73-1.35
		C78.92,150.87,79.22,149.8,79.99,149.03z"/>
	<path class="st0" d="M73.82,170.74c0.65,0.56,0.22,1.16-0.14,1.49c-0.58,0.54-1.4,0.59-2.18,0.39c-0.08-0.02-0.16-0.34-0.11-0.48
		c0.23-0.79,0.24-0.76-0.66-0.89c-1.51-0.23-3.18-1.36-2.99-3.13c0.13-1.25-0.24-2.62,0.78-3.7c0.09-0.1,0.38-0.47-0.04-0.46
		c-1.25,0.01-0.6-1-0.63-1.4c-0.04-0.6,0.84-0.64,1.19-0.54c1.3,0.39,2.5-0.37,3.76-0.17c0.97,0.16,1.98,0.12,2.92,0.37
		c0.56,0.15,0.95,0.73,1.06,1.49c0.38-0.45,0.37-0.85,0.41-1.23c0.04-0.43,0.19-0.6,0.68-0.6c1.93-0.01,3.87-0.2,5.8,0.06
		c0.3,0.04,0.81-0.26,0.82,0.37c0.02,0.6-0.46,0.58-0.87,0.58c-1.5,0.01-2.99-0.01-4.49,0.01c-0.47,0.01-1.02-0.19-1.38,0.33
		c0.39,0.38,0.77,0.76,1.36,0.81c1.22,0.11,1.51,0.92,1.55,1.99c0.05,1.29-0.17,2.61,0.19,3.99c0.56-0.34,0.43-0.83,0.45-1.23
		c0.04-0.95-0.02-1.9,0.03-2.85c0.11-1.79,0.98-2.26,2.62-1.43c0.43-0.76,0.78-1.55,1.11-2.39c-0.05,0.8-0.01,1.61-0.16,2.38
		c-0.21,1.12-0.78,1.73-1.93,0.8c-0.19,1.63,0.1,3.16-0.61,4.62c0-1.32,0-2.64,0-3.96c-0.01,1.63-0.88,3.34,0.25,4.88
		c0.02,0.03,0.06,0.1,0.05,0.12c-0.5,0.58-0.93,1.28-1.55,1.67c-0.35,0.22-1-0.34-1.56-0.09c0.29-0.47-1.54,0.04-0.38-0.83
		c-0.28-0.22,0.75-1.01-0.4-0.9c-0.3,0.03-0.21-0.43-0.22-0.69c-0.01-0.59-0.13-1.21,0.02-1.76c0.46-1.74-0.85-2.43-1.84-3.31
		c-0.24-0.21-0.62-0.22-0.86,0.03c-0.22,0.23-0.37,0.55-0.09,0.85c0.67,0.73,0.53,1.55,0.3,2.38c-0.05,0.17-0.17,0.39-0.11,0.52
		c0.79,1.69-0.4,1.39-1.33,1.36c-0.07-0.12-0.11-0.25-0.1-0.39c0.24-2.45,0.04-2.73-2.4-3.27c-0.18-0.04-0.36-0.07-0.53-0.12
		c-0.69-0.21-1.56-0.37-1.36-1.35c0.18-0.88,1.03-0.88,1.76-0.92c0.62-0.04,1.2,0.4,1.88,0.17c-1.06-1.19-3.28-1.24-4.2-0.14
		c-0.79,0.94-0.41,2.17,0.86,2.74c0.62,0.28,1.32,0.31,1.96,0.53c0.63,0.22,1.22,0.51,1.11,1.32c-0.11,0.77-0.75,0.95-1.41,1.03
		c-0.46,0.06-0.9-0.07-1.34-0.17c-0.41-0.09-0.81-0.44-1.33-0.01c0.81,0.83,1.83,0.9,2.85,0.94
		C72.87,170.57,73.38,170.34,73.82,170.74z"/>
	<path class="st1" d="M94.65,46.83c-0.73-0.37-1.47-0.74-2.2-1.11c-0.78,0.13-1.29-0.39-1.78-0.82c-2.4-2.14-3.44-4.84-3.23-8.04
		c0.01-0.22,0.06-0.45,0.1-0.67c0.14-0.79-0.27-2.02,0.8-2.19c1.05-0.17,2.26,0.07,2.99,1.15c0.46,0.27,0.92,0.54,1.38,0.81
		c0.87,0.1,1.58,0.56,1.96,1.3c0.84,1.6,1.78,3.12,1.94,5.07c0.11,1.3,0.31,2.56,0.06,3.86C96.4,47.54,95.75,47.75,94.65,46.83z"/>
	<path class="st0" d="M127.53,142.97c-0.64,0.01-1.17,0.12-1,0.98c0.03,0.17,0,0.36,0,0.54c0.02,2.25-0.18,1.82,1.84,1.9
		c1.51,0.06,3.04-0.23,4.54,0.17c-1.86,0.31-3.72,0.04-5.3,0.13c1.23,0.11,2.74-0.06,4.26,0.08c0.53,0.05,0.72,0.12,0.77,0.6
		c-2.02,2.74-5.63,3.21-8.23,1.07c-2.62-2.16-2.82-5.76-0.45-8.26c0.34,0.59,0.41,1.18,0.03,1.79c-0.11,0.19-0.18,0.41-0.25,0.62
		c-0.27,0.87,0.02,1.67,0.84,1.86c0.96,0.21,0.6-0.85,0.94-1.46c0.17,1.16,0.5,2.16,0.66,3.23c0-0.97-0.01-1.93,0-2.9
		c0-0.4-0.03-0.89,0.49-0.99C127.09,142.24,127.43,142.49,127.53,142.97z"/>
	<path class="st0" d="M54.79,164.02c0.04,0.01,0.1,0.01,0.13,0.03c0.52,0.37,1.31-0.42,1.62,0.22c0.34,0.71,0.33,1.57,0.2,2.38
		c-0.18,1.15-0.55,2.22-0.13,3.47c0.43,1.29-0.15,1.64-1.55,1.28c-0.5-0.13-1.08-0.23-1.54,0.21h0c-1.03-0.01-2,0.12-2.83,0.84
		c-0.36,0.31-0.84,0.31-1.29,0.18c-0.71-0.2-0.87-0.53,0.01-1.05c-1,0.16-0.82,0.09-0.83-0.78c-0.03-2.36,0.38-4.75-0.22-7.09l0,0
		c0.03-1.04,0.53-1.52,1.57-1.22c0.98,0.29,2,0.16,2.92-0.02c1.42-0.28,1.69-0.22,1.74,1.3c-1.3-0.03-2.6-0.28-3.91-0.18
		c-0.63,0.05-1.05,0.23-1.05,0.95c-0.01,1.68-0.06,3.35,0.03,5.03c0.01,0.23,0.09,0.44,0.33,0.53c0.46-0.18,0.34-0.61,0.42-0.93
		c0.31-1.24,1.09-1.47,2.05-0.61c0.54,0.49,0.86,1.18,1.48,1.58c0.15,0.1,0.33,0.14,0.54,0.05c0.09-0.47-0.34-0.68-0.52-1.01
		c-0.2-0.37-0.51-0.83-0.21-1.13C54.92,166.91,54.7,165.43,54.79,164.02z"/>
	<path class="st1" d="M128.57,74.37c-1,0.5-0.97-0.12-0.82-0.83c-0.49,0.12-0.33,0.64-0.64,0.82c-0.72-0.87-0.73-1.85-0.61-2.91
		c0.14-1.23-0.44-1.64-1.62-1.28c-0.41,0.13-0.43-0.05-0.4-0.4c0.06-0.91,0.06-1.82,0.11-2.74c0.04-0.73-0.32-1.17-1.02-1.09
		c-1.28,0.15-1.45-0.55-1.35-1.54c0.07-0.68-0.17-0.84-0.85-0.7c-0.78,0.16-1.6,0.16-1.37-1.07c0.38-0.2,0.37,0.52,0.79,0.29
		c-0.01-0.1,0.03-0.26-0.03-0.34c-0.59-0.8-1.02-1.83-2.3-1.72c-0.35,0.03-0.52-0.21-0.43-0.51c0.29-1.01-0.39-1.28-1.11-1.53
		c-0.3-0.77-1.59-0.79-1.47-1.89c0-0.02-0.16-0.09-0.23-0.07c-1.96,0.53-1.32-1.28-1.84-2.04c1.66-0.07,2.6,1.03,3.51,2.17
		c0.1,0.07,0.2,0.15,0.3,0.22c1.99,0.95,3.22,2.74,4.73,4.23c1.1,1.08,1.96,2.32,2.83,3.56c0.3,0.43,0.68,0.86,0.59,1.46
		c0.05,0.1,0.1,0.2,0.16,0.3c1.69,2.15,2.63,4.63,3.25,7.26C128.78,74.16,128.67,74.28,128.57,74.37z"/>
	<path class="st1" d="M107.44,163.24c1.35-0.27,2.71-0.22,4.05-0.07c1.99,0.21,3.08,2.66,1.71,4.1c-1.05,1.1-0.63,1.66,0.12,2.46
		c0.23,0.25,0.53,0.5,0.54,0.97c-1.12,0.35-1.98,0.1-2.57-0.97c-0.17-0.31-0.45-0.57-0.64-0.88c-0.29-0.46-0.73-0.56-1.18-0.43
		c-0.46,0.14-0.27,0.61-0.29,0.95c-0.02,0.36,0.04,0.72,0.07,1.08c-0.64,0.73-1.38,0.28-2.1,0.2c0.22-2.03,0.03-4.06,0.11-6.09
		C107.28,164.11,107.1,163.64,107.44,163.24z"/>
	<path class="st0" d="M90.52,89.61c-1.29,0.34-0.63,1.35-0.7,2.09c-0.08,0.86,0.64,0.47,1.04,0.56c0.22,0.05,0.43,0.08,0.51,0.34
		l-0.01-0.01c0.42,0.26,0.46,0.55,0.09,0.88c-0.63,0.27-1.34-0.13-1.95,0.21c-0.02,0.05-0.1,0.03-0.14,0.08
		c0.11-0.06,0.22-0.09,0.34-0.04c0.36,0.6-0.05,1.29,0.25,1.89c0.02,0.59,0.04,1.19,0.05,1.78c0.3,1.12-0.09,2.28,0.22,3.4
		c0.27,4.51,0.59,9.02,0.79,13.54c0.04,1,0.39,1.35,1.31,1.41c0.85,0.06,1.7,0.21,2.55,0.32c-1.09,0.9-2.22,0.13-3.32,0.04
		c-0.43-0.04-0.81-0.28-1.29-0.13c-0.36,0.11-0.71-0.03-0.69-0.55c0.06-1.47-0.18-2.92,0.1-4.41c0.18-0.96,0.79-1.77,0.63-2.87
		c-0.16-1.07-0.16-2.15-0.55-3.18c-0.09-0.25-0.34-0.52-0.13-0.76c0.68-0.76,0.11-1.22-0.37-1.7c-0.24-0.24-0.37-0.51-0.35-0.84
		c0.01-0.21-0.09-0.52,0.15-0.59c0.35-0.11,0.29,0.38,0.59,0.52c0-1.82,0-3.59,0-5.38c-0.41,0.24-0.04,0.7-0.34,1.01
		c-0.26-0.62-0.44-1.22-0.41-1.88c-0.79-0.3-0.82,0.21-0.78,0.75c0.03,0.41,0.43,0.81-0.04,1.31c-0.54-0.88-0.12-1.83-0.3-2.69
		c0.01-0.25,0.03-0.49,0.04-0.74c0.08-0.09,0.22,0,0.29-0.12c-0.11-0.04-0.23-0.08-0.34-0.11l0.03,0.02
		c-0.64-0.29-1.29-0.57-1.34-1.42c0.35-0.01,0.69-0.02,1.04-0.02c0.84-0.71,0.43-1.59,0.32-2.43c-0.33,0.05-0.58-0.11-0.82-0.31
		c-0.34-0.44-1.32-0.67-0.72-1.44c0.5-0.64,1.05-0.51,1.88-0.07c0.57,0.3,1.45,0.32,2.04,0.87C90.38,89.12,90.63,89.28,90.52,89.61z
		"/>
	<path class="st1" d="M54.79,164.02c0.72,1.43,0.8,2.8-0.57,3.9c-0.41,0.33-0.33,0.53-0.06,0.86c0.48,0.59,0.93,1.2,1.46,1.89
		c-1.25,0.33-2.15,0.18-2.73-0.93c-0.12-0.24-0.34-0.42-0.49-0.65c-0.32-0.48-0.7-0.9-1.32-0.67c-0.59,0.22-0.28,0.78-0.31,1.18
		c-0.04,0.62,0.15,1.3-0.9,1.23c-0.59-0.04-0.78-0.22-0.78-0.8c0.02-2.04,0.01-4.08,0.02-6.11c0-0.35-0.08-0.82,0.47-0.79
		c1.69,0.08,3.45-0.43,5.01,0.65C54.65,163.86,54.72,163.94,54.79,164.02z"/>
	<path class="st0" d="M79.99,149.03c-0.59,1.2-1.19,2.41-1.89,3.83c1.32,0,2.5,0.02,3.69-0.01c0.84-0.02,0.92-0.84,1.11-1.35
		c0.41-1.12,1.08-1.45,2.24-1.38c1.8,0.11,3.6,0.02,5.41,0.04c0.42,0.01,0.91-0.19,1.27,0.21c-1.66,0.3-3.33,0.05-5,0.14
		c-0.58,0.03-1.18-0.15-1.74,0.13c-0.01,0.09,0,0.22-0.05,0.26c-0.76,0.53,0.87,1.99-0.7,2.04c-0.92,0.03-1.7,0.48-2.63,0.45
		c-2.57-0.08-5.14-0.04-7.71-0.02c-1.24,0.01-2.35-0.7-3.67-0.45c-0.56,0.1-0.56-0.66-0.1-1.09c0.72-0.66,1.15-1.27-0.05-1.91
		c-0.46-0.25-0.32-0.79-0.28-1.24c0.88,1.09,1.8,2.14,2.61,3.28c0.51,0.72,1.08,0.98,1.93,0.92c1.02-0.07,2.05-0.02,3.39-0.02
		c-1.37-1.78-2.55-3.36-3.79-4.9c-0.52-0.64-0.86-1.09,0.19-1.55c0.79-0.35,1.26-1.15,1.83-1.78c0.45,0.71-0.02,1.49,0.17,2.25
		c0.12,0.47-0.51,0.32-0.81,0.45c-0.21,0.1-0.58,0.28-0.43,0.58c0.13,0.24,0.45,0.4,0.71,0.55c0.19,0.11,0.14-0.86,0.51-0.15
		c0.12,0.22,0.19,0.53-0.08,0.75c-0.2,0.15-0.8,0.14-0.33,0.56c0.6,0.55,0.85,1.62,1.86,1.53c0.2-0.02,1.12,0.09,1.07-0.88
		C78.71,149.94,79.04,148.9,79.99,149.03z"/>
	<path class="st1" d="M73.82,170.74c-1.45,0.36-2.88,0.33-4.22-0.36c-0.35-0.18-1.1-0.26-0.67-1.02c0.31-0.56,0.6-0.96,1.34-0.45
		c0.72,0.49,1.58,0.68,2.46,0.45c0.36-0.09,0.68-0.29,0.73-0.71c0.05-0.47-0.32-0.64-0.66-0.74c-0.78-0.22-1.59-0.35-2.36-0.58
		c-1.04-0.32-1.74-0.98-1.68-2.16c0.06-1.15,0.75-1.76,1.83-2.05c1.15-0.3,2.25-0.21,3.3,0.31c0.37,0.18,1.11,0.23,0.66,0.99
		c-0.29,0.49-0.58,0.9-1.27,0.47c-0.63-0.39-1.36-0.49-2.1-0.34c-0.37,0.08-0.71,0.25-0.71,0.69c0,0.37,0.31,0.54,0.63,0.61
		c0.57,0.14,1.15,0.24,1.72,0.36c2.32,0.52,2.93,1.84,1.81,3.97C74.36,170.38,74.09,170.56,73.82,170.74z"/>
	<path class="st1" d="M60.94,169.16c1.02,0.52,2.11,0.13,3.16,0.21c0.55,0.04,0.95,0.04,0.92,0.79c-0.02,0.71-0.45,0.65-0.91,0.65
		c-1.36,0-2.72-0.03-4.07,0.01c-0.65,0.02-0.87-0.2-0.86-0.85c0.03-2.04,0.03-4.08,0.01-6.12c-0.01-0.62,0.25-0.77,0.8-0.76
		c1.22,0.03,2.45,0.09,3.67-0.01c1.17-0.1,1.58,0.31,1.3,1.44c-0.49,0.56-1.16,0.39-1.77,0.46c-0.52,0.05-1.08-0.13-1.62,0.35
		c0.54,0.53,1.2,0.3,1.77,0.39c0.73,0.12,1.47,0.17,1.49,1.2c0.02,1.08-0.7,1.25-1.52,1.3C62.41,168.28,61.45,168.14,60.94,169.16z"
		/>
	<path class="st0" d="M94.65,46.83c1.35,0.65,1.57,0.02,1.68-1.24c0.34-3.83-0.46-7.15-3.63-9.63c0.84-0.82,1.88-0.08,2.8-0.36
		c0.28-0.09,0.28,0.22,0.35,0.44c0.2,0.64-0.01,1.25-0.04,1.87c-0.04,0.89-0.17,1.78,0.99,2.2c0.47,0.17,0.65,0.7,0.41,1.27
		c-0.26,0.62-0.94,1.36,0.33,1.69c-0.38,0.85,0.31,1.54,0.34,2.33c0.01,0.32,0.07,0.63,0.45,0.98c0.26-2.22-0.75-4.2-0.73-6.39
		c0.49,0.46,0.12,0.98,0.54,1.57c0-1.08,0-1.93,0-2.79c0.08,0,0.15,0,0.23,0c0.04,0.55,0.07,1.11,0.11,1.66
		c0.11,1.97,0.17,3.94,0.45,5.89c0.12,0.84,0.39,0.97,1.11,0.64c0.61-0.27,1.26-0.44,1.89-0.65c-0.24,0.5-0.58,1-1.14,1.03
		c-0.69,0.03-0.6,0.51-0.73,0.9c-0.79-0.78-1.21,0-1.78,0.48c-0.3-1.03-0.87-1.14-1.68-0.5c0.13-0.26,0.26-0.52,0.39-0.77
		c-0.08-0.05-0.11-0.07-0.15-0.1c-0.43,0.79-1.66,0.54-1.95,1.53c-0.19,0.66-0.55,0.94-1.17,0.37c-0.22-0.21-0.68-0.21-0.1-0.65
		C94.13,48.19,93.74,47.1,94.65,46.83z"/>
	<path class="st1" d="M101.5,168.38c0.39-1.42,0.11-2.87,0.16-4.31c0.02-0.65,0.1-0.97,0.88-0.98c0.85-0.01,0.81,0.45,0.81,1.03
		c-0.01,1.4,0.01,2.81,0.02,4.21c0.4,0.8-0.21,1.16-0.68,1.58l0.08,0l-0.08-0.01c-1.32,1.44-2.9,1.7-4.5,0.75
		c-0.2-0.12-0.39-0.23-0.59-0.35c-0.97-0.17-1.22-0.81-1.1-1.69c-0.01-1.4-0.05-2.81-0.01-4.21c0.01-0.53-0.36-1.3,0.78-1.31
		c1.21-0.02,0.8,0.8,0.87,1.39c0.17,1.37-0.34,2.79,0.3,4.13c0.04,0,0.1-0.01,0.13,0.01C99.61,169.45,100.59,169.38,101.5,168.38z"
		/>
	<path class="st0" d="M153.58,135.14l-0.11,0.01l-0.09-0.06c-2.83-0.28-5.66-0.09-8.49-0.11c-1.43-0.01-2.87-0.16-4.3,0.11
		c-0.4,0.23-0.31,0.61-0.31,0.96c0.01,5.59,0.02,11.18,0.03,16.77c-0.33,0.26-0.68,0.42-0.69-0.21c-0.01-0.57,0.1-1.15,0.15-1.72
		c0.27-0.51,0.13-1.06,0.13-1.6c0.01-4.11,0.01-8.23,0-12.34c0-0.44,0.14-0.9-0.13-1.32c-0.51-0.63,0.04-1.28-0.23-2.21
		c0.72,0.54,1.21,0.72,1.75,0.21c0.35-0.33,0.87-0.17,1.31-0.17c2.94-0.01,5.89,0.11,8.82-0.06c1.19-0.07,1.99,0.75,3.06,0.79
		c0.04,0,0.12,0.04,0.11,0.06c-0.05,1.29-0.04,2.59-0.21,3.87c-0.04,0.27-0.45-0.05-0.45-0.33c0-0.81-0.11-1.62,0.1-2.43
		C154.19,134.84,153.79,135.11,153.58,135.14z"/>
	<path class="st1" d="M120.19,163.98c0.21-0.29,0.41-0.58,0.74-1.04c1.38,2.6,2.72,5.11,4.06,7.64c-1.33,0.33-1.36,0.36-2.11-0.58
		c-0.44-0.55-1-0.37-1.49-0.33c-1.02,0.08-2.25-0.53-2.92,0.96c-0.19,0.41-1.06,0.22-1.7,0.06c1.06-2.09,2.1-4.14,3.14-6.18
		C120,164.33,120.09,164.16,120.19,163.98z"/>
	<path class="st1" d="M85.38,170.77c0.01-0.08,0.01-0.16-0.01-0.24c0.46-1.45,1.08-2.81,1.96-4.07c0.59-0.85,0.74-1.94,1.3-2.82
		c0.67-1.05,1.14-1.09,1.73-0.01c0.73,1.33,1.36,2.72,1.86,4.16c0.06,0.1,0.12,0.19,0.19,0.29c0.73,0.54,0.85,1.4,1.14,2.17
		c-0.2,1.27-1.14,0.26-1.66,0.54l0.01,0c-0.07-0.1-0.15-0.19-0.22-0.29c-1.32-1.12-2.73-0.75-4.15-0.25
		c-0.56,0.88-1.4,0.51-2.16,0.51L85.38,170.77z"/>
	<path class="st0" d="M103.3,152.77c0-3.2,0-6.41,0-9.63c0.52-0.06,0.73,0.36,1.01,0.6c3.35,2.9,6.68,5.82,10.04,8.71
		c0.33,0.28,0.55,0.9,1.2,0.63c0.1-0.16,0.19-0.16,0.28,0c0.02,1.4-1.37,1.18-2.05,1.77c-0.04,0.03-0.27-0.07-0.3-0.16
		c-0.04-0.1-0.01-0.29,0.07-0.36c1-0.91-0.41-1.35-0.51-1.33c-1.42,0.3-1.48-0.92-1.75-1.65c-0.22-0.6-0.56-0.67-0.98-0.62
		c-0.45,0.05-1,0.24-1.21-0.21c-0.27-0.61,0.44-0.77,0.84-1.08c-0.49-0.31-1.01-0.45-1.11-1.14c-0.04-0.25-0.44-0.94-1.12-0.19
		c-0.51,0.57-0.61-0.31-0.63-0.57c-0.07-1.14-0.7-1.17-1.63-1.09c-1.13,0.1-0.98,0.89-1.03,1.55c-0.06,0.85-0.02,1.7-0.27,2.56
		c0-1.95,0-3.91,0-5.86c-0.61,2.27-0.66,4.55-0.49,6.84c0.01,0.17-0.2,0.55,0.21,0.4c0.62-0.22,0.73,0.13,0.76,0.57
		c0.03,0.49-0.38,0.51-0.74,0.62c-1.42,0.42-2.86,0.15-4.3,0.14C100.79,152.78,102.14,153.51,103.3,152.77z"/>
	<path class="st1" d="M77.19,58.84c-0.59,0.41-1.69,0.44-1.23,1.64c0.12,0.31-0.07,0.43-0.33,0.4c-1.48-0.18-1.76,1.06-2.43,1.91
		c0.48,0.52,0.52-0.44,0.88-0.13c0.28,1.23-0.56,1.15-1.35,1.06c-0.47-0.05-0.82-0.24-0.88,0.53c-0.15,1.84-0.52,2.02-2.4,1.36
		c0.02-1.49,1.18-2.32,1.95-3.38c1.03-1.41,2.54-2.38,3.58-3.79c0.48-0.65,1.29-0.8,1.92-1.22c0.1-0.07,0.2-0.15,0.29-0.22
		c0.42-0.82,1.11-1.31,1.98-1.55c0.43,0.12,0.57-0.18,0.69-0.5c1.17-1.07,2.7-1.47,4.06-2.19c0.27-0.14,0.6-0.17,0.86,0.11
		c0.27,0.68,0.01,1.13-0.71,1.28c0.27,0.42,0.53,0.04,0.67,0.17c0.27,0.26-0.05,0.43-0.2,0.48c-0.6,0.19-1.24,0.38-1.84,0.19
		c-1.32-0.42-2.09,0.13-2.48,1.31c-0.21,0.64-0.48,0.96-1.17,0.62c-0.21-0.11-0.58-0.08-0.55,0.15
		C78.67,58.13,77.42,58.09,77.19,58.84z"/>
	<path class="st0" d="M92.98,152.54c1.37,0.67,2.8,0.15,4.4,0.35c-2.54-4.87-4.98-9.54-7.41-14.21c0.25-0.17,0.5-0.35,0.76-0.51
		c0.57-0.34,0.95-0.15,0.81,0.49c-0.21,0.91,0.21,1.39,0.79,1.97c0.79,0.78,1.53,1.61,1.34,2.94c-0.1,0.69,0.27,1.27,1.21,1.3
		c0.68,0.02,1.23,1.46,0.88,2.07c-0.25,0.44,0.1,1.64,0.56,1.88c0.48,0.25,0.48,0.26,0.78,1.13c0.39-0.2,0.19-0.81,0.82-1.01
		c-0.74,1.19,0.16,1.95,0.65,2.72c0.64,1.01,0.08,1.42-0.68,1.57c-1.51,0.29-3.06,0.15-4.6,0.06
		C92.93,153.27,92.58,153,92.98,152.54z"/>
	<path class="st0" d="M58.69,147.91c1.95-5.95-0.42-11-5.95-12.67c-2.56-0.77-5-0.36-7.39,0.68c0.04-0.93,1.02-1.19,1.37-1.9l0,0
		c1.18,0.92,2.36,0.31,3.54,0l0,0c0.6,0.39,0.62,0.41,1.25-0.08c0.61-0.48,1.19,0.24,1.9-0.07c0.59-0.26,1.12,0.33,0.99,1.27
		c-0.08,0.55,0.69,0.66,1.2,0.68c1.3,0.05,2.35,0.5,2.96,1.75c0.46-0.68-0.45-0.97-0.43-1.67c0.85,0.36,0.86,1.01,0.83,1.67
		c-0.03,0.58-0.12,1.15-0.14,1.72c-0.01,0.21,0.04,0.6,0.13,0.62c2,0.52,0.65,2.08,1.06,3.15c0.36-0.16,0.32-0.52,0.32-0.86
		c0.01-0.32-0.01-0.64,0.01-0.95c0.03-0.35,0.02-0.83,0.52-0.76c0.41,0.06,0.33,0.54,0.26,0.8c-0.43,1.55-0.33,3.2-0.96,4.8
		c-0.08-0.34-0.13-0.59-0.19-0.84c0.32,1.05,0.01,1.92-0.73,2.68l0,0C59.05,147.95,58.88,148.17,58.69,147.91z"/>
	<path class="st0" d="M64.38,86.62c0.76,5.68,2.59,10.96,5.98,15.64c0.45,0.62,0.96,1.19,1.44,1.78c1.02,0.45,1.65,1.34,2.34,2.16
		c0.22,0.26,0.31,0.54,0.1,0.86c-1.79,0.42-1.91,0.31-1.93-1.3c-0.01-0.62-0.54-0.74-1.05-0.73c-0.99,0.02-1.56-0.45-1.29-1.42
		c0.23-0.81,0-0.74-0.64-0.71c-0.83,0.04-1.9,0.3-1.5-1.34c0.18-0.75-0.13-1.66-0.05-2.51c0.09-0.99-1.01-1.17-1.42-1.25
		c-0.98-0.21-0.75-0.62-0.61-1.23c0.45-2.03-0.09-3.39-1.81-4.53c-0.37-0.24-0.31-0.48-0.2-0.8c0.26-0.75,0.61,0.13,0.93-0.06
		c-0.21-1.52-0.59-3.01-0.54-4.55l0,0C64.21,86.62,64.3,86.62,64.38,86.62z"/>
	<path class="st0" d="M110.58,144.4c-3.68-3.11-7.3-6.29-10.8-9.59c-0.45-0.36-0.49,0.02-0.57,0.32c-0.06,0.11-0.14,0.2-0.25,0.26
		c-1.11,0.42-0.63-0.6-0.76-0.94c-0.16-0.44,0.01-0.91,0.68-0.87c0.89,0.05,1.77,0.1,2.66,0.1c0.53,0,0.38,0.41,0.46,0.67
		c0.06,0.2,0.45,0.44-0.25,0.53c-0.5,0.07,0.23,0.67,0.32,0.64c1.11-0.34,1.34,1.48,2.48,0.98c0.01,0,0.13,0.14,0.11,0.18
		c-0.6,1.43,0.78,1.24,1.38,1.7l0,0c-0.63,0.55-0.71,1.14,0.14,1.46c0.59,0.22,1.21,0.49,1.94,0.28c0.67-0.19,1.07,0.15,0.71,0.91
		c-0.34,0.71-0.27,1.14,0.61,1.34c0.29,0.07,0.38,1.11,0.87,0.08c0.07-0.14,0.4,0.73,0.89,0.83
		C111.32,143.83,111.74,144.56,110.58,144.4z"/>
	<path class="st1" d="M113.38,111.63c0.12-0.68-0.37-1.63,1.09-1.62c0.53,0,1.68-0.67,1.27-1.85c-0.19-0.55,0.24-0.74,0.52-0.73
		c1.48,0.09,2.33-0.77,2.92-1.92c0.33-0.64,0.75,0.89,0.84-0.09c0.04-0.45,1.38-0.82,0.06-1.44c-0.38-0.18-0.14-1.05,0.58-0.87
		c1.08,0.27,1.62-0.41,1.79-1.13c0.34-1.36,1.25-1.21,2.21-1.15c-0.01,1.51-1.07,2.31-2.11,3.13l0,0.01
		c-0.7,1.21-1.5,2.33-2.77,3.03c-0.07,0.07-0.13,0.13-0.2,0.2C117.94,109.28,116.04,110.99,113.38,111.63z"/>
	<path class="st1" d="M83.97,164.52c-2.19,0.04-2.19,0.04-2.19,2.21c0,1.08-0.03,2.17,0.01,3.25c0.02,0.65-0.21,0.86-0.85,0.86
		c-0.65,0-0.86-0.22-0.85-0.86c0.03-1.49-0.03-2.98,0.02-4.46c0.02-0.77-0.23-1.11-1-0.97c-1.09,0.21-1.45-0.3-1.34-1.31
		c1.85-0.28,3.71-0.08,5.56-0.11C84.5,163.1,83.83,164.01,83.97,164.52z"/>
	<path class="st1" d="M144.95,164.53c-2.17,0-2.17,0-2.16,2.2c0,0.81-0.09,1.63,0.02,2.43c0.18,1.36-0.27,1.93-1.66,1.62
		c-0.01-1.67-0.07-3.35-0.01-5.02c0.03-0.89-0.12-1.38-1.15-1.25c-0.48,0.06-1.11,0.24-1.1-0.7c0.01-0.93,0.63-0.7,1.12-0.71
		c1.22-0.02,2.45,0.07,3.66-0.03C144.83,163,145.25,163.4,144.95,164.53z"/>
	<path class="st0" d="M92.23,167.78c-0.87-1.58-1.74-3.15-2.69-4.86c-1.42,2.59-2.79,5.1-4.17,7.6c-0.75-0.57,0.05-1.25,0.15-1.66
		c0.19-0.8-0.77-1.45-0.03-2.25c0.19,0.46,0.37,0.86,0.54,1.27c0.12-0.81,0.06-1.58,1.14-1.71c0.23-0.03,0.2-0.44,0.18-0.73
		c-0.04-0.66-0.04-1.33-0.01-2c0.06-1.71,0.18-1.81,1.81-1.13c0.51,0.21,0.81-0.22,1.08-0.32c1-0.39,1.33,0.36,1.24,0.83
		c-0.17,0.79,0.13,1.51,0.04,2.27c-0.13,1.15,0.34,1.48,1.62,1.14C92.79,166.81,92.51,167.3,92.23,167.78z"/>
	<path class="st0" d="M87.09,135.69c-2.2,4.4-4.53,8.74-6.93,13.04c-0.39-0.06-0.77-0.2-1.23-0.05c0.26-1.03,0.15-2.16,1.59-2.13
		c0.28,0.01,0.22-0.29,0.3-0.48c0.53-1.33,1.11-2.64,1.9-3.86c0.33-0.52,1.36-1.18,0.37-2.2c-0.49-0.51,0.57-1.66,1.49-1.74
		c0.46-0.04,0.81-0.45,0.73-0.83C84.98,135.85,86.28,136.05,87.09,135.69z"/>
	<path class="st0" d="M79.38,55.65c-0.72,0.45-1.44,0.9-2.16,1.35c-0.16-0.22-0.27-0.52-0.48-0.64c-0.7-0.38,0.57-0.77-0.01-1.19
		c-0.06-0.04,0.49-0.14,0.73-0.12c0.5,0.04,1.14,0.23,1.09-0.53c-0.11-1.58,0.83-1.61,1.87-1.33c1.29,0.35,2.23-0.14,3.03-1.03
		c0.52-0.58,1.32-0.52,1.9-0.94c1.44-0.12,2.92,0.27,4.31-0.47c0.34-0.18,0.8-0.17,1.13,0.18c-2.01,0.61-4.1,0.93-5.98,1.93
		c-1.75,0.57-3.37,1.39-4.86,2.45C79.82,55.52,79.66,55.69,79.38,55.65z"/>
	<path class="st0" d="M116.89,57c-1.21-0.66-2.22-1.64-3.51-2.17c-2.78-1.76-5.84-2.83-9.02-3.61c-0.35-0.09-0.69-0.19-1.04-0.29
		c0.49-0.45,1.01-0.23,1.53-0.06c1.24,0.41,2.52,0.44,3.82,0.52c0.96,0.06,1.93,0.31,2.64,1.33c0.69,0.97,2.15,0.78,3.07,0.5
		c1.17-0.36,1.01,0.17,1.07,0.85c0.05,0.61,0.25,1,1,1.19C117.79,55.61,117.81,55.89,116.89,57z"/>
	<path class="st0" d="M91.32,35.15c-0.72-0.25-1.45-0.48-2.15-0.76c-0.94-0.38-1.22,0.02-1.36,0.92c-0.71,4.49,0.83,7.95,4.64,10.41
		c-0.05,0.46-0.28,0.58-0.74,0.51c-1.17-0.18-2.59-0.02-2.14-1.96c0.05-0.2-0.02-0.62-0.26-0.48c-1.48,0.88-1.06-1.03-1.81-1.19
		c-0.06-0.01-0.14-0.17-0.12-0.19c0.98-1.13-0.48-2.1-0.18-3.28c0.31-1.24,0.15-2.6,0.16-3.9c0-0.33,0.1-0.61,0.16-0.91
		c0.25-1.25,0.9-1.36,1.84-0.7c0.43,0.31,0.74,0.04,1.09-0.15c0.44-0.23,0.33-0.13,0.6,0.32C91.34,34.25,91.78,34.58,91.32,35.15z"
		/>
	<path class="st0" d="M76.36,144.07c0.42-1.43,0.72-2.86,0.32-4.37c-0.73-2.75-2.69-4-5.29-4.55c0.11-0.12,0.21-0.27,0.35-0.04
		c-0.09-0.26-0.42-0.07-0.54-0.28c0.74-0.11,1.11-0.87,1.9-0.99c1.03-0.15,1.28,0.47,0.87,1.01c-0.55,0.73,0.2,0.96,0.32,0.91
		c0.78-0.32,0.79,0.58,1.25,0.7l0,0c0.62,0.62,0.52,1.94,1.89,1.9c0.2-0.01,0.41,0.71,0.68,1.2c0.27-0.58-0.39-1.08,0.22-1.74
		c0.31,1.6,0.03,3.05,0.12,4.48c0.01,0.17-0.12,0.34-0.13,0.52C78.25,144.48,78.18,144.52,76.36,144.07z"/>
	<path class="st1" d="M74.24,107.05c-0.58-1.19-1.84-1.83-2.44-3.01c0.44,0.04,0.3-0.37,0.43-0.56c0.42-0.62,1.09-0.41,1.59-0.33
		c0.49,0.08,0.31,0.61,0.19,1.03c-0.21,0.75-0.04,0.81,0.65,1.21c0.38,0.22,0.42,0.85,0.97,1.14c0.83,0.44,1.53,1.11,2.51,1.25
		c0.22,0.03,0.38,0.09,0.24,0.3c-0.8,1.32,0.55,1.59,1.11,1.71c1.16,0.25,1.32,0.89,1.24,1.83c-0.54,0.21-0.96-0.16-1.35-0.38
		c-1.84-1.06-3.6-2.24-4.91-3.96C74.4,107.2,74.32,107.13,74.24,107.05z"/>
	<path class="st0" d="M60.94,169.16c-0.35-1.14,0.06-1.57,1.23-1.43c0.53,0.07,1.08-0.02,1.62,0.02c0.63,0.05,0.76-0.26,0.76-0.81
		c0-0.52-0.2-0.73-0.72-0.7c-0.68,0.03-1.36-0.03-2.03,0.01c-0.65,0.04-0.97-0.11-0.97-0.87c0-0.81,0.41-0.85,1.01-0.84
		c1.04,0.02,2.08,0,3.11,0c0.08,0,0.17-0.01,0.25-0.01l0.02,0.02c0.18,1.42,0.02,2.78-0.33,4.19c-0.16,0.63-0.39,0.42-0.61,0.42
		C63.17,169.17,62.06,169.16,60.94,169.16z"/>
	<path class="st0" d="M125.34,66.47c-2.25-3.5-4.95-6.6-8.16-9.25c0.47-0.18,0.85,0.29,1.36,0.14c0.83-0.24,1.25,0.1,1.19,1.04
		c-0.05,0.73,0.29,1.18,1.15,1.07c0.91-0.12,1.3,0.32,1.22,1.26c-0.05,0.55,0,1.08,0.88,0.97c0.73-0.09,1.08,0.7,1.05,1.15
		c-0.06,0.91,0.45,0.92,1.04,1.02c0.38,0.07,1.2-0.18,0.95,0.49C125.76,65.06,127.07,66.3,125.34,66.47z"/>
	<path class="st0" d="M76.93,57.22c-2.51,2.17-4.89,4.47-6.77,7.24c-0.25,0.37-0.46,0.76-0.69,1.15c-0.23,0.29-0.47,0.57-0.7,0.86
		c-1.03-0.51-0.31-1.65-0.81-2.37c-0.05-0.08,0.47-0.39,0.8-0.3c0.8,0.21,1.23,0.17,1.26-0.9c0.01-0.44,0.33-1.35,1.32-1.19
		c0.66,0.11,0.71-0.47,0.67-0.92c-0.09-1,0.28-1.44,1.3-1.32c0.64,0.07,1.12-0.19,1.03-0.9c-0.16-1.14,0.52-1.39,1.35-1.19
		C76.19,57.5,76.48,56.92,76.93,57.22z"/>
	<path class="st0" d="M128.57,74.37c-0.57-2.71-1.85-5.14-3.07-7.59c0.6,0.1,0.69,0.64,0.94,1.05c0.13,0.22,0.22,0.67,0.46,0.58
		c1.73-0.65-0.31,0.88,0.63,0.71c0.18-0.23,0.47-0.57,0.76-0.93c0.78,1.68-0.45,3.51,0.6,5.09c0.2,0.82,0.92,1.41,0.92,2.29
		c0.71-0.02,0.13-0.64,0.6-0.81c0.84,1.39-0.22,2.85,0.28,4.29c-0.67-0.08-0.25-0.65-0.6-0.8c-0.3,0.47,0.12,1.13-0.35,1.57
		C129.36,77.99,129.24,76.12,128.57,74.37z"/>
	<path class="st0" d="M100.36,32.97c-1,1.58-1.23,3.41-1.69,5.16c-0.3-0.31-0.37-0.68-0.33-1.11c0.08-0.98,0.48-1.91-0.04-2.96
		c-0.41-0.83,0.33-1.68,0.62-2.48c0.32-0.89,1.19-0.21,1.88-0.38c-0.39-0.76-0.58-1.56,0.09-2.1c0.6-0.48,0.84,0.47,1.33,0.58
		c0.04,0.05,0.08,0.1,0.12,0.15C102.1,31.14,101.3,32.1,100.36,32.97z"/>
	<path class="st0" d="M123.44,135.92c-2.61,1.57-4.32,3.8-4.93,6.83c-0.53,0.65,0.01,1.5-0.47,2.37c-0.31-0.97,0.05-1.77,0.01-2.56
		c-0.02-0.34-0.04-0.87,0.06-1.02c0.67-0.99-0.52-1.71-0.27-2.63c0.18-0.67,0.24-1.34,1.15-0.69c0.69,0.5,0.8-0.54,1.31-0.48
		c-0.48-0.81,0.56-1.19,0.53-1.87C121.71,135.9,122.58,135.5,123.44,135.92z"/>
	<path class="st0" d="M124.19,139.98c2.08-2.1,5.11-2.27,7.34-0.13c0.99,0.95,1.72,1.15,2.77,0.35c0.01,0.12,0.02,0.24,0.03,0.36
		l0,0c-0.42,0.59-0.42,0.59,0.43,1.23c-2.08,0.92-3.27,0.43-3.83-1.61c-0.1-0.35-0.2-0.43-0.54-0.36c-0.83,0.18-1.57,0.24-2.09-0.73
		c-0.22-0.41-1.14-0.29-1.31,0.03C126.3,140.38,125.11,139.71,124.19,139.98z"/>
	<path class="st0" d="M133.21,136.32c-2.74-1.54-5.62-1.86-8.62-0.91c-0.38-0.91,0.84-0.27,0.77-0.79
		c-0.06-0.49,1.28,0.02,0.57-0.85c0.62-0.35,1.54-0.26,1.92-0.11c1.56,0.64,2.98-0.15,4.46-0.1c0.25,0.01,0.58,0.18,0.47,0.32
		C131.98,134.88,133.07,135.51,133.21,136.32z"/>
	<path class="st0" d="M62.53,152.55c1.09,0.64,2.28,0.19,3.41,0.28c0.57,0.05,0.44-0.46,0.45-0.78c0.02-1.08-0.03-2.17,0.03-3.25
		c0.03-0.48-0.35-1.28,0.38-1.38c0.79-0.1,1.72-0.38,2.45,0.26c0.29,0.25,0.44,0.66,0.65,1c-3.67-0.18-3.03-0.61-2.97,3
		c0.01,0.56,0.26,0.86,0.64,1.14c-1.39,0.72-2.84,0.53-4.26,0.54c-0.31,0-0.64-0.01-0.94-0.1c-0.49-0.15-0.94-0.49-1.08-0.95
		c-0.21-0.71,0.66-0.71,0.93-1.13C62.57,151.59,62.14,152.16,62.53,152.55z"/>
	<path class="st0" d="M62.5,134.84c-0.18-0.09-0.36-0.18-0.54-0.27c0.46-0.86,1.17-1.14,2.13-1.11c1.67,0.06,3.35-0.02,5.02,0.03
		c0.89,0.03,1.35,0.43,0.74,1.35C67.4,135.05,64.95,135.06,62.5,134.84z"/>
	<path class="st0" d="M44.83,136.23c-2.38,1.66-3.87,3.9-4.38,6.78c-0.8,0.36-1.02-0.11-0.73-0.68c0.25-0.5,0.18-0.77-0.05-1.22
		c-0.3-0.58-0.2-0.89,0.19-1.76c0.55,0.08-0.09,0.58,0.31,0.74c0.32-0.27,0.64-0.58,1-0.83c0.37-0.26,0.87-0.44,0.21-0.91
		c0.33-0.4-0.19-1.27,0.68-1.34c0.28-0.02,0.23-0.11,0.26-0.28c0.05-0.24-0.85-0.63,0.17-0.76
		C43.33,135.87,44.14,135.25,44.83,136.23z"/>
	<path class="st0" d="M113.35,35.08c0.84-3.29,0.76-6.61,0.26-9.93c0.33-0.79,0.74-0.43,1.13-0.07c0.42,0.38,0.23,0.51-0.21,0.73
		c-0.38,0.2-0.67,0.58,0.17,0.72c0.77,0.13,0.69,0.8,0.4,1.28c-0.45,0.73-0.69,1.42-0.4,2.26c0.08,0.22-0.16,0.62-0.05,0.75
		c0.22,0.24,0.29-0.24,0.46-0.24c0.29,0,0.16,0.27,0.15,0.41c-0.03,0.39,0.21,0.88-0.14,1.15c-0.86,0.66-1.02,1.52-0.39,2.5
		c0.07,0.11,0.12,0.24,0.23,0.45C114.41,35.38,113.87,35.14,113.35,35.08z"/>
	<path class="st0" d="M145.49,149.51c-1.12,0.29-1.46-0.13-1.43-1.28c0.08-2.45,0.01-2.45,2.51-2.46c1.99-0.01,3.97-0.03,5.96-0.04
		c0.27,0.06,0.57,0.13,0.49,0.49c-0.08,0.36-0.39,0.28-0.66,0.25c-1.74-0.25-3.49-0.18-5.24-0.19c-2.06,0-2.06,0-1.81,2.15
		c0.37-0.48-0.02-1.07,0.38-1.72C145.64,147.76,146.14,148.66,145.49,149.51z"/>
	<path class="st0" d="M116.59,136.2c0,5.55,0,11.11,0,16.66c-0.12,0-0.24,0-0.36,0c0-5.55,0-11.1,0-16.65
		C116.35,136.21,116.47,136.2,116.59,136.2z"/>
	<path class="st0" d="M99.23,116.05c1.82-0.29,3.64-0.6,5.47-0.87c0.89-0.13,1.26-0.56,1.28-1.51c0.06-2.66,0.22-5.32,0.35-7.98
		c0.52,0.93,0.2,1.94,0.23,2.92c0.05,1.3,0.44,2.59-0.21,3.92c-0.33,0.67,0.5,1.45,0.2,2.36c-0.2,0.59,0.16,0.86-0.9,0.91
		c-1.18,0.06-2.46-0.06-3.67,0.34C101.1,116.43,100.13,116.54,99.23,116.05z"/>
	<path class="st0" d="M102.12,50.71c-3.38-0.41-6.76-0.39-10.14,0c-0.22-0.14-0.93,0.17-0.57-0.51c0.33-0.61,0.96-1.28,1.59-0.71
		c0.71,0.65,1.32,0.44,2.07,0.41c1.43-0.06,2.88-0.24,4.3,0.14c0.79,0.21,1.54-0.5,2.29,0.16c0.13-0.67-0.6-0.52-0.46-0.8
		c0.1-0.2,0.75-0.39,0.81-0.31c0.33,0.4,0.64,0.87,0.76,1.36C102.84,50.77,102.35,50.62,102.12,50.71z"/>
	<path class="st0" d="M109.1,89.64c0.17,4.78,0.34,9.56,0.51,14.34c0,0.99,0,1.98,0,2.97c-0.08,0-0.15,0-0.23,0.01
		c-0.08-1.3-0.18-2.6-0.22-3.91c-0.07-2.3-0.1-4.6-0.13-6.9c-0.01-0.58-0.26-0.83-0.82-0.81c0.24-1.15,0.8-2.26,0.54-3.48
		C108.48,90.6,108.47,90.6,109.1,89.64z"/>
	<path class="st0" d="M111.19,24.47c-1.86,0.74-3.8,1.3-5.42,2.54c-0.49,1.02-1.45,1.45-2.41,1.88l-0.02,0.02
		c-0.2,0.45-0.44,0.87-1.03,0.85c0,0-0.09-0.09-0.09-0.09c0.19-0.6,0.4-1.19,0.56-1.8c0.19-0.68,0.14-1.69,1.29-0.77
		c0.18,0.14,0.36-0.02,0.46-0.16c0.75-1.01,1.93-1.71,2.95-1.91C108.69,24.81,109.87,23.99,111.19,24.47z"/>
	<path class="st0" d="M122.56,103.96c0.7-1.04,1.4-2.08,2.11-3.13c0.39-0.57,0.77-1.14,1.16-1.71c0.34,0.05,0.75,0.24,0.53,0.58
		c-0.41,0.65-0.04,1.28-0.07,1.9c-0.03,0.52-0.07,0.84-0.51,1.07c-0.68,0.37-0.46-0.19-0.53-0.5c-0.04-0.17-0.26-0.09-0.3,0.01
		c-0.21,0.44-1.01,0.44-0.86,1.15c0.03,0.16,0.06,0.35,0.02,0.51c-0.08,0.41,0.2,1.01-0.35,1.2c-0.63,0.22-0.63-0.48-0.91-0.78
		C122.75,104.15,122.65,104.06,122.56,103.96z"/>
	<path class="st0" d="M131.07,152.83c2.6-0.97,4.58-2.62,5.74-5.19c0.42,0.74,0.45,0.77-0.12,1.32c-0.32,0.31-0.05,0.46,0.06,0.66
		c0.17,0.3,0.66,0.49,0.43,0.9c-0.23,0.41-0.74,0.37-1.1,0.25c-1.1-0.37-1.19,0.34-1.08,1.04c0.12,0.83-0.2,1.38-0.93,1.2
		C133.05,152.78,132.04,153.22,131.07,152.83z"/>
	<path class="st0" d="M120.25,149.49c1.57,1.86,3.55,3.05,5.91,3.62c-1.01,0.89-1.86-0.39-2.83-0.24c-0.03,0-0.25-0.31-0.49-0.15
		c-1.02,0.66-1.93,0.13-2.48-0.56C119.79,151.42,119.63,150.4,120.25,149.49z"/>
	<path class="st0" d="M102.68,169.91c0.23-0.53,0.46-1.05,0.68-1.58c0.49-1.59,0.15-3.22,0.19-4.83c0.02-0.75-0.66-0.56-1.13-0.61
		c-0.4-0.04-0.85,0.02-0.86-0.6c0-0.85,0.62-0.32,0.87-0.33c1.73-0.04,1.92,0.18,2.02,2.17c0.03,0.57-0.07,1.14-0.27,1.72
		c-0.03-0.51-0.07-1.03-0.1-1.54c-0.05,1.54-0.59,3.1,0.23,4.61c0.18,0.34,0.59,0.97,0.07,1.36c-0.49,0.37-0.97,0.1-1.32-0.38
		C103.03,169.84,102.81,169.9,102.68,169.91z"/>
	<path class="st0" d="M74.47,107.28c1.58,1.17,3.15,2.34,4.75,3.49c0.47,0.34,1.01,0.58,1.51,0.86c0.09,0.1,0.18,0.21,0.27,0.31
		c-1.42-0.13-2.81-0.81-4.35-0.2c0.09-0.65,0.78-0.44,0.96-0.98c-1.02-0.48-1.61-1.78-3.07-1.52c-0.49,0.09-0.36-0.3-0.34-0.51
		C74.27,108.24,74.38,107.76,74.47,107.28z"/>
	<path class="st0" d="M113.38,111.63c2.34-1.1,4.19-2.89,6.21-4.43c0.08,0.35,0.12,0.71,0.24,1.05c0.29,0.8-0.09,1.01-0.8,1.04
		c-1.04,0.04-2,0.85-2.31,1.97c-0.09,0.32-0.29,0.3-0.5,0.29c-1.07-0.06-2.08,0.29-3.12,0.4
		C113.19,111.84,113.28,111.73,113.38,111.63z"/>
	<path class="st0" d="M62.5,134.84c2.45,0,4.9,0,7.35,0c0.45,0,0.91,0,1.36,0c0.18,0.04,0.42-0.1,0.51,0.17
		c0,0.01-0.21,0.09-0.33,0.14c-2.53,0-5.07,0.05-7.6-0.01c-0.99-0.03-1.2,0.32-1.2,1.24c0.04,4.85,0.02,9.7,0.02,14.55
		c0,0.54-0.05,1.08-0.08,1.62c-0.46-0.38-0.25-0.9-0.3-1.37c0-4.93-0.01-9.86,0.01-14.79C62.24,135.86,62.06,135.29,62.5,134.84z"/>
	<path class="st0" d="M59.13,171.38c0.09-0.22,0.39-0.3,0.72-0.3c1.62-0.01,3.25-0.01,4.87,0c0.24,0,0.63-0.06,0.57,0.34
		c-0.03,0.19-0.54,0.33-0.57,0.36c-1.31,1.48-3.11-0.05-4.51,0.76c-0.37,0.21-0.62-0.28-0.51-0.55
		C60.21,170.68,59.16,171.97,59.13,171.38z"/>
	<path class="st0" d="M52.72,152.88c2.43-0.79,4.29-2.31,5.7-4.43c0.57,0.09,0.69,0.54,0.45,0.89c-0.35,0.51-0.45,1.39-1.27,1.38
		c-0.63-0.01-0.95,0.37-0.88,0.77c0.27,1.48-0.84,1.4-1.65,1.48C54.3,153.04,53.49,153.22,52.72,152.88z"/>
	<path class="st0" d="M66.07,72.25c-0.72,2.49-1.33,5-1.69,7.56c-0.44-0.45-0.12-1.04-0.3-1.55c-0.4-0.02-0.07,0.64-0.63,0.54
		c-0.15-1.04,1.51-1.92,0.41-3.07c1.03-0.58,0.6-1.48,0.54-2.32c-0.02-0.23-0.51-0.9,0.16-0.69C65.32,72.96,65.59,72.45,66.07,72.25
		z"/>
	<path class="st0" d="M152.56,138.92c0.2,0.09,0.39,0.21,0.59,0.28c0.22,0.08,0.47,0.13,0.34,0.44c-0.08,0.19-0.26,0.16-0.45,0.16
		c-1.98-0.03-3.95-0.03-5.93-0.06c-0.57-0.01-1.09,0.03-1.46,0.64c-0.23-0.51-0.38-0.95-0.17-1.45
		C147.84,138.7,150.2,138.7,152.56,138.92z"/>
	<path class="st0" d="M40.44,144.91c0.32,2.18,1.31,4.05,2.76,5.67c-1.04,0.35-1.27,0.27-1.37-0.61c-0.16-1.37-0.92-1.69-2.26-1.27
		c0.62-0.65,0.78-1.15,0.21-1.93c-0.6-0.82-0.21-1.82,0.24-2.75C40.18,144.37,40.31,144.64,40.44,144.91z"/>
	<path class="st0" d="M109.82,108.41c0.08,0.82,0.17,1.64,0.25,2.47c0.2,0.14,0.26,0.35,0.26,0.57c0.03,1.42,0.03,1.43,1.37,0.84
		c0.3-0.13,0.57-0.22,0.88-0.06c0.32,0.23,0.86,0.46,0.63,0.88c-0.25,0.46-0.83,0.7-1.38,0.69c-0.57-0.01-1.13-0.08-1.71-0.06
		c-0.93,0.03-1.11-0.75-0.89-1.41c0.36-1.05,0.59-2-0.06-3.04C108.85,108.78,109.31,108.5,109.82,108.41z"/>
	<path class="st0" d="M109.27,41.62c1.62-1.76,2.95-3.7,3.86-5.93c0.48,1.09-0.05,2.15-0.1,3.22c-0.02,0.34-0.22,0.42-0.56,0.39
		c-0.89-0.08-1.38,0.53-1.37,1.26C111.14,42.18,110.14,41.73,109.27,41.62z"/>
	<path class="st0" d="M127.76,94.99c0.89-2.73,1.57-5.52,1.98-8.37c0.08,0,0.16,0,0.24,0l0,0c0.08,1.36-0.18,2.67-0.47,3.99
		c-0.07,0.33-0.32,0.97,0.45,0.36c0.23-0.18,0.35,0.17,0.43,0.36c0.1,0.21,0.14,0.54-0.09,0.6c-1.6,0.37-1.65,1.83-2.16,2.97
		C128.07,95.07,127.95,95.2,127.76,94.99z"/>
	<path class="st0" d="M89.66,138.12c-0.87-0.99-1-2.46-2.12-3.28c0.07-0.42-0.56-1.1,0.19-1.21c0.56-0.08,1.66-0.27,1.6,0.81
		C89.25,135.71,89.51,136.9,89.66,138.12z"/>
	<path class="st0" d="M102.5,46.04c1.46-0.81,2.92-1.63,4.38-2.44c0.14,0.91-0.84,1.37-0.85,2.3c0,0.58-0.78,0.05-1.24,0.23
		C104.13,46.38,103.26,46.27,102.5,46.04z"/>
	<path class="st0" d="M115.83,153.09c-0.09,0-0.19,0-0.28,0c-0.1-5.81-0.12-11.62,0.01-17.43c0.09-0.13,0.18-0.13,0.28,0
		C115.83,141.46,115.83,147.28,115.83,153.09z"/>
	<path class="st0" d="M115.83,135.65c-0.09,0-0.18,0-0.28,0c-0.41-0.83-1.17-0.38-1.76-0.45c-0.65-0.08-1.31-0.04-1.97-0.06
		c-0.11-0.08-0.26-0.13-0.32-0.23c-0.15-0.23-0.01-0.32,0.21-0.31c0.31,0.02,0.57,0.31,1,0.1c-0.02-0.42-0.65-0.18-0.68-0.55
		C114.63,133.26,115.08,133.43,115.83,135.65z"/>
	<path class="st0" d="M98.96,135.38c0.08-0.09,0.17-0.17,0.25-0.26c0,5.42,0,10.85,0,16.27c-0.08,0-0.17,0-0.25,0
		C98.96,146.06,98.96,140.72,98.96,135.38z"/>
	<path class="st0" d="M68.62,66.77c-0.78,1.62-1.55,3.24-2.33,4.87c-0.26-0.74-0.5-1.46-0.39-2.3c0.1-0.77-0.14-1.59,1.09-0.98
		c0.49,0.24,0.53-0.22,0.61-0.47C67.77,67.34,68.01,66.89,68.62,66.77z"/>
	<path class="st0" d="M140.85,170.8c-0.18-0.09-0.36-0.18-0.54-0.28l0,0c0.05-1.56-0.12-3.13,0.15-4.73c-0.17,0-0.32-0.05-0.4,0.01
		c-0.36,0.22-0.74,0.5-0.99-0.07c-0.24-0.54,0.22-0.74,0.6-0.84c0.39-0.1,0.94-0.36,1.05,0.37c0.08,0.53,0.12,1.07,0.13,1.61
		c0.02,1.3,0.01,2.61,0.01,3.92C140.86,170.79,140.85,170.8,140.85,170.8z"/>
	<path class="st0" d="M101.5,168.38c-0.85,1.43-2.04,1.52-3.09,0.22c0.27-0.34-0.06-0.78,0.08-1.15c0.36,0.05,0.35,0.33,0.49,0.49
		c0.36,0.41,0.58,1.32,1.2,1.02c0.5-0.25,0.93-1.08,0.81-1.72c-0.11-0.55-0.17-0.99,0.04-1.53c0.17-0.43,0.14-0.95,0.22-1.62
		C101.69,165.65,101.07,167.04,101.5,168.38z"/>
	<path class="st0" d="M139.77,135.65c0.48,0.02,0.26,0.39,0.26,0.59c0.01,4.55,0.01,9.11,0.01,13.66c0,0.36,0.04,0.73-0.27,1.01
		C139.77,145.82,139.77,140.74,139.77,135.65z"/>
	<path class="st0" d="M144.16,142.19c-0.13-1.09-0.1-2.18-0.01-3.27c0.08-0.12,0.17-0.11,0.25,0c0.18,0.36,0.36,0.73,0.54,1.09
		c-0.42,0.41-0.26,0.93-0.24,1.41c0.01,0.24,0.18,0.52,0.41,0.41c1.06-0.5,2.02,0.32,3.09,0.14c1.14-0.2,2.34-0.05,3.51-0.04
		c0.17,0,0.34,0.04,0.51,0.27C149.54,142.19,146.85,142.19,144.16,142.19z"/>
	<path class="st0" d="M61.69,135.65c0.31,0.28,0.27,0.65,0.27,1.01c0,4.48,0,8.96,0,13.44c0,0.15-0.05,0.31-0.27,0.45
		C61.68,145.59,61.68,140.62,61.69,135.65L61.69,135.65z"/>
	<path class="st0" d="M118.52,145.46c0.36,1.43,0.92,2.79,1.74,4.03c-1.61-0.16-2.2-0.94-2.16-3.01
		C118.1,146.15,117.38,145.36,118.52,145.46z"/>
	<path class="st0" d="M126.98,154.18c0.99,0,1.99-0.01,2.98,0.01c0.3,0,0.7-0.04,0.73,0.4c0.03,0.36-0.33,0.33-0.57,0.44
		c-1.06,0.45-2.13,0.06-3.16-0.05C126.05,154.87,126.9,154.45,126.98,154.18L126.98,154.18z"/>
	<path class="st0" d="M98.18,170.66c1.63,0.52,3.15,0.37,4.5-0.75c-0.03,0.92-0.29,1.68-1.27,1.98c-0.39,0.05-0.78,0.09-1.16,0.14
		c-0.14-0.36,0.35-0.45,0.29-0.51c-0.36-0.37-0.69-0.02-1.04,0.1h0C99.16,171.16,98.25,171.49,98.18,170.66z"/>
	<path class="st0" d="M119.79,107c0.92-1.01,1.84-2.02,2.77-3.03c0.14,0.48,0,0.88-0.38,1.21c-0.16,0.14-0.38,0.2-0.42,0.48
		C121.53,107.48,121.49,107.51,119.79,107z"/>
	<path class="st0" d="M126.15,98.57c0.45-0.99,0.91-1.98,1.36-2.96c1.44,1.13,1.46,1.7-0.06,2.41
		C127.04,98.2,126.64,98.54,126.15,98.57z"/>
	<path class="st0" d="M43.76,151.08c1.32,0.93,2.77,1.58,4.31,2.03c-1.33-0.05-2.69,0.07-3.96-0.22
		C43.38,152.73,44,151.69,43.76,151.08z"/>
	<path class="st0" d="M153.65,153.1c-0.28,0.3-0.65,0.26-1.01,0.26c-3.75,0-7.5,0-11.25,0c-0.16,0-0.32-0.05-0.46-0.28
		c4.23,0,8.47,0,12.7,0L153.65,153.1z"/>
	<path class="st0" d="M86.67,113.22c-0.02-2.15,0.13-4.29,0.35-6.43c0.51,1.12,0.2,2.29,0.22,3.44c0.02,1.54-0.5,3.06,0,4.86
		C86.24,114.42,86.94,113.72,86.67,113.22z"/>
	<path class="st0" d="M64.95,162.35c0.18-0.01,0.48-0.57,0.51-0.03c0.04,0.73,0.28,1.52-0.23,2.21c0,0-0.02-0.02-0.02-0.02
		c0.26-1.35-0.35-1.73-1.63-1.64c-1.53,0.1-3.07,0.02-4.61,0.02h0c0.35-0.06-0.36-1.72,0.82-0.54h0
		C61.5,162.87,63.23,162.64,64.95,162.35L64.95,162.35z"/>
	<path class="st0" d="M129.97,86.62c0-2.07,0-4.14,0-6.53c0.56,1.24,0.67,2.19,0.44,3.18c-0.19,0.84-0.33,1.63,0.22,2.46
		C131.03,86.32,130.61,86.62,129.97,86.62C129.98,86.62,129.97,86.62,129.97,86.62z"/>
	<path class="st0" d="M110.58,144.4c0.72-0.09,0.61-0.64,0.62-1.12c0-2.52,0-5.04,0-7.56c0.06,3.07,0.65,6.15-0.02,9.21
		C110.98,144.75,110.78,144.57,110.58,144.4z"/>
	<path class="st0" d="M91.89,170.78c0.29,0.34,0.68,0.39,1.08,0.38c0.28-0.01,0.72-0.23,0.68,0.28c-0.03,0.4-0.21,0.93-0.5,1.11
		c-0.32,0.2-0.84,0.05-1.27,0.06C92.29,172.01,91.21,171.39,91.89,170.78L91.89,170.78z"/>
	<path class="st0" d="M81.54,112.23c0.73,0.36,1.46,0.72,2.18,1.08c-0.39,0.38-2.6,0.39-2.68-0.02
		C80.97,112.93,81.04,112.42,81.54,112.23z"/>
	<path class="st0" d="M64.13,86.62c-0.38-0.06-0.61-0.31-0.52-0.66c0.48-1.83-0.31-3.74,0.52-5.84
		C64.13,82.49,64.13,84.55,64.13,86.62C64.13,86.62,64.13,86.62,64.13,86.62z"/>
	<path class="st0" d="M129.7,153.13c0.16-0.02,0.33-0.05,0.49-0.07c0.62,0.18,0.84,0.53,0.11,0.78c-0.47,0.16-1.09,0.07-1.6-0.07
		c-0.69-0.19-1.24-0.12-1.72,0.4h0c-0.23-0.06-0.61,0.11-0.58-0.31c0.03-0.36,0.34-0.46,0.68-0.5
		C127.95,153.26,128.86,153.6,129.7,153.13z"/>
	<path class="st0" d="M134.75,139.97c0.38-0.29,0.77-0.59,1.18-0.9c-0.29-0.42-0.56-0.82-0.84-1.22c0.49,0.03,0.9,0.46,1.47,0.14
		c0.31-0.17,0.56,0.13,0.66,0.46c0.1,0.32-0.08,0.45-0.34,0.61C136.2,139.48,135.6,140.02,134.75,139.97z"/>
	<path class="st0" d="M144.4,138.92c-0.08,0-0.16,0-0.25,0c0.02-0.09,0.04-0.18,0.06-0.27c2.45,0,4.89-0.01,7.34,0.03
		c0.32,0.01,0.8-0.34,1.01,0.24c-2.36,0-4.72,0-7.07,0C145.12,138.92,144.76,138.92,144.4,138.92z"/>
	<path class="st1" d="M112.58,112.23c-0.77,0.34-1.53,0.69-2.51,1.12c0-0.92,0-1.7,0-2.47c0.93,0.22,0.15,1.03,0.48,1.46
		c0.74-0.02,1.31-0.93,2.12-0.33C112.65,112.09,112.62,112.16,112.58,112.23z"/>
	<path class="st0" d="M85.36,170.76c0.42,0.56,1.02,0.38,1.63,0.35c-0.19,0.56,0.14,1.51-1.01,1.21c-0.87-0.23-1.13-0.75-0.61-1.55
		C85.38,170.77,85.36,170.76,85.36,170.76z"/>
	<path class="st0" d="M87.53,170.24c0.03-0.23,0.07-0.52,0.32-0.53c1.08-0.04,2.16-0.05,3.24-0.02c0.45,0.01,0.51,0.44,0.59,0.8
		c-0.86-0.7-1.98,0.06-2.87-0.51C88.55,170.89,88,170.36,87.53,170.24z"/>
	<path class="st0" d="M53.52,171.61c0.83,0.19,1.73,0.12,2.44,0.71c-0.86,0.93-1.84-0.11-2.75,0.14
		C52.98,172.53,52.95,172.33,53.52,171.61L53.52,171.61z"/>
	<path class="st0" d="M134.81,137.59c-0.43-0.36-0.87-0.73-1.3-1.09c0.03-0.84,0.73-0.84,1.15-0.65
		C135.51,136.27,135.04,136.98,134.81,137.59z"/>
	<path class="st0" d="M107.44,163.24c0.01,2.2,0.03,4.39,0.04,6.59c0,0.3,0.06,0.65-0.32,0.81c-0.01-2.58-0.02-5.16-0.04-7.74
		C107.23,163.01,107.33,163.13,107.44,163.24z"/>
	<path class="st0" d="M93.55,170.24c-0.48-0.67-0.88-1.38-1.14-2.17c0.26-0.3,0.52-0.59,1-1.13
		C93.12,168.24,93.94,169.18,93.55,170.24z"/>
	<path class="st0" d="M58.96,162.89c0,2.43,0,4.85,0,7.28C58.86,167.74,58.34,165.31,58.96,162.89L58.96,162.89z"/>
	<path class="st0" d="M48.35,163.71c0,2.15,0,4.31,0,6.46C48.24,168.02,47.75,165.85,48.35,163.71
		C48.35,163.71,48.35,163.71,48.35,163.71z"/>
	<path class="st0" d="M85.08,150.64c1.19-0.57,2.44-0.17,3.66-0.26c1.02-0.07,2.05-0.02,3.07-0.02c0.05,0.08,0.1,0.16,0.16,0.25
		c-0.11,0.14-0.23,0.15-0.36,0.03C89.44,150.64,87.26,150.64,85.08,150.64z"/>
	<path class="st0" d="M84.31,113.57c0.53,0.2,1.06,0.41,1.6,0.61c0.27,0.63-0.23,1.03-0.49,1.56
		C85.66,114.66,84.38,114.44,84.31,113.57z"/>
	<path class="st0" d="M107.37,43.23c0.43-0.35,0.87-0.7,1.3-1.05c0.77,0.49-0.54,1.27,0.24,1.76c-0.11,0.05-0.23,0.09-0.34,0.14
		C108.44,43.4,107.66,43.66,107.37,43.23z"/>
	<path class="st0" d="M96.49,168.61c0.3,0.61,0.6,1.22,1.1,1.69c-1.4,0.29-1.81-0.22-1.35-1.69l0,0
		C96.32,168.61,96.41,168.61,96.49,168.61z"/>
	<path class="st0" d="M96.24,168.61c-0.44-1.91-0.44-3.81,0-5.72l0,0C96.24,164.8,96.24,166.71,96.24,168.61
		C96.24,168.61,96.24,168.61,96.24,168.61z"/>
	<path class="st0" d="M87.8,103.86c0.05-0.3-0.08-0.76,0.36-0.73c0.43,0.03,0.45,0.49,0.45,0.86c-0.01,0.33-0.09,0.74-0.44,0.72
		C87.64,104.68,87.87,104.17,87.8,103.86z"/>
	<path class="st0" d="M136.01,172.66c-0.04-0.72,1.2-1.03,0.49-1.87c0.11-0.07,0.21-0.19,0.33-0.21c0.29-0.05,0.36,0.12,0.39,0.39
		C137.32,171.9,136.88,172.4,136.01,172.66z"/>
	<path class="st0" d="M137.35,144.09c0.11-1.08-0.61-1.14-1.38-1.13c0.21-0.64,0.67-0.9,1.23-0.52
		C137.83,142.88,137.7,143.5,137.35,144.09z"/>
	<path class="st0" d="M100.84,48.91c-0.48,0.13-0.75,1.02-1.36,0.43c-0.35-0.34,0.07-0.48,0.23-0.72
		C100.33,47.75,100.42,49,100.84,48.91z"/>
	<path class="st0" d="M50.26,154.45c-0.55-0.07-1.06,0.14-1.58,0.28c-0.27,0.08-0.56,0.14-0.57-0.29c0-0.31,0.19-0.58,0.5-0.46
		C49.15,154.2,49.79,154,50.26,154.45L50.26,154.45z"/>
	<path class="st0" d="M48.36,153.42c1.29,0,2.25,0,3.2,0C50.6,153.49,49.64,154.03,48.36,153.42z"/>
	<path class="st0" d="M87.49,99.33c0.02-0.42,0.04-0.84,0.06-1.27c0.53,1.22,0.14,2.48-0.06,3.72
		C87.49,100.97,87.49,100.15,87.49,99.33z"/>
	<path class="st0" d="M95.53,116.36c1.01,0,2.03,0,3.04,0c0,0.05,0,0.09,0,0.14c-1.01,0-2.02,0-3.04,0
		C95.53,116.45,95.53,116.41,95.53,116.36z"/>
	<path class="st0" d="M87.22,103.96c0.02-0.51,0.05-1.02,0.07-1.54c0.52,1.13,0.13,2.3,0.03,3.46
		C87.28,105.24,87.25,104.6,87.22,103.96z"/>
	<path class="st0" d="M96.24,162.89c-0.05-0.2-0.12-0.6,0.12-0.47c0.58,0.31,1.11-0.35,1.58,0c0.23,0.17,0,0.42-0.24,0.44
		C97.21,162.9,96.73,162.88,96.24,162.89L96.24,162.89z"/>
	<path class="st0" d="M108.36,95.72c0.08,0.37-0.21,0.46-0.45,0.56c-0.25,0.1-0.44,0.01-0.48-0.28c-0.05-0.38,0.12-0.57,0.51-0.65
		C108.28,95.28,108.28,95.52,108.36,95.72z"/>
	<path class="st0" d="M113.35,24.05c-0.52,0.07-1.04,0.14-1.57,0.22C112.19,23.32,112.41,23.29,113.35,24.05z"/>
	<path class="st0" d="M153.64,152.81c0.11-0.06,0.28-0.08,0.32-0.17c0.16-0.32-0.32-0.8,0.25-1c0.06-0.02,0.3,0.21,0.31,0.33
		c0.04,0.48,0.05,0.99-0.61,1.1c-0.09,0.01-0.17,0.01-0.26,0.02c0,0-0.02-0.02-0.02-0.02C153.64,152.99,153.64,152.9,153.64,152.81
		C153.64,152.81,153.64,152.81,153.64,152.81z"/>
	<path class="st0" d="M100.42,163.69c-0.01-0.46,0.04-0.89,0.54-0.94c0.21-0.02,0.41,0.23,0.4,0.46
		C101.32,163.81,100.64,163.35,100.42,163.69z"/>
	<path class="st0" d="M60.2,147.64c0.22,0.3,0.7,0.46,0.5,0.85c-0.07,0.13-0.59,0.22-0.71,0.11C59.63,148.28,60.23,148,60.2,147.64z
		"/>
	<path class="st0" d="M61.96,134.56c0.03,0.39-0.09,0.75-0.27,1.09c0,0,0,0,0,0c-0.55-0.02-0.44-0.47-0.43-0.75
		C61.28,134.47,61.68,134.61,61.96,134.56z"/>
	<path class="st0" d="M61,162.02c0.9-0.3,1.57-0.25,2.25,0C62.55,162.02,61.85,162.02,61,162.02z"/>
	<path class="st0" d="M99.72,167.96c-0.59-0.41-0.47-0.74-0.35-1.17C99.93,167.09,99.73,167.47,99.72,167.96z"/>
	<path class="st0" d="M136.51,170.79c0,0.5-0.4,0.76-0.63,1.19c-0.32-0.49,0.15-0.81,0.08-1.18c0,0,0,0,0,0
		C136.14,170.79,136.32,170.79,136.51,170.79z"/>
	<path class="st0" d="M50.26,154.45c0.47,0.09,1.05-0.22,1.48,0.45C51.11,154.98,50.67,154.76,50.26,154.45L50.26,154.45z"/>
	<path class="st0" d="M50.27,161.98c0.83-0.23,1.31-0.2,1.8,0C51.59,161.98,51.12,161.98,50.27,161.98z"/>
	<path class="st0" d="M61.14,162.08c-0.39,0.43-0.9,0.22-1.36,0.27h0C60.12,161.67,60.61,161.78,61.14,162.08z"/>
	<path class="st0" d="M91.61,150.64c0.12-0.01,0.24-0.02,0.36-0.03c0.15,0.29,0.3,0.57,0.45,0.86
		C91.34,151.99,91.91,150.89,91.61,150.64z"/>
	<path class="st0" d="M137.3,145.68c0.02-0.44,0.03-0.87,0.05-1.31c0.43,0.59,0.21,1.23,0.2,1.88
		C137.23,146.13,137.35,145.87,137.3,145.68z"/>
	<path class="st0" d="M46.72,134.02c0.25-0.44,0.58-0.67,1.17-0.4C47.61,134.16,47.12,133.97,46.72,134.02
		C46.72,134.02,46.72,134.02,46.72,134.02z"/>
	<path class="st0" d="M153.69,150.37c0-0.1,0-0.19,0.01-0.29c0.27-0.12,0.55-0.35,0.76,0.07c0.05,0.1,0.09,0.3,0.04,0.34
		C154.2,150.77,153.96,150.46,153.69,150.37z"/>
	<path class="st0" d="M140.31,170.52c-0.05,0.42-0.32,0.65-0.77,0.85C139.53,170.77,139.84,170.57,140.31,170.52L140.31,170.52z"/>
	<path class="st0" d="M102.4,172.31c-0.3,0.15-0.45,0.3-0.61,0.29c-0.4-0.01-0.23-0.4-0.32-0.6c-0.11-0.24,0.16-0.08,0.19-0.07
		C101.88,172.02,102.09,172.14,102.4,172.31z"/>
	<path class="st0" d="M92.48,152.93c-0.44-0.25-0.82-0.4-0.7-0.72c0.1-0.26,0.37-0.04,0.5,0.13
		C92.35,152.44,92.37,152.58,92.48,152.93z"/>
	<path class="st0" d="M115.36,33.41c0.2,0.37-0.09,0.59-0.23,0.85C115.01,33.96,114.98,33.67,115.36,33.41z"/>
	<path class="st0" d="M106.03,138.38c0.46,0.04,0.75,0.24,0.8,1.03C106.47,138.94,106.25,138.66,106.03,138.38
		C106.03,138.38,106.03,138.38,106.03,138.38z"/>
	<path class="st0" d="M59.78,148.46c-0.63,0.27-0.53-0.2-0.54-0.54c0,0,0,0,0,0C59.87,147.64,59.76,148.11,59.78,148.46z"/>
	<path class="st0" d="M143.74,170c-0.24-0.38-0.18-0.7-0.08-1.07C144.01,169.27,143.83,169.61,143.74,170z"/>
	<path class="st0" d="M84.45,51.14c0.29-0.32,0.53-0.53,0.76-0.28c0.35,0.36,0.04,0.37-0.25,0.35C84.83,51.2,84.7,51.18,84.45,51.14
		z"/>
	<path class="st0" d="M123.72,164.8c0.05-0.24-0.1-0.57,0.29-0.65c0.05-0.01,0.16,0.09,0.18,0.15
		C124.26,164.67,124,164.74,123.72,164.8L123.72,164.8z"/>
	<path class="st0" d="M63.72,89.19c-0.03-0.12-0.09-0.27-0.11-0.42c-0.01-0.11,0.02-0.31,0.19-0.19c0.12,0.08,0.19,0.27,0.23,0.43
		C64.06,89.15,63.95,89.23,63.72,89.19z"/>
	<path class="st0" d="M50.26,134.02c-0.1-0.27-0.17-0.54,0.26-0.53c0.12,0,0.33,0.1,0.33,0.14
		C50.81,133.98,50.52,133.98,50.26,134.02C50.26,134.02,50.26,134.02,50.26,134.02z"/>
	<path class="st0" d="M63.72,75.8c-0.36,0.01-0.39-0.15-0.36-0.33c0.04-0.18,0.12-0.36,0.33-0.32c0.07,0.01,0.13,0.2,0.15,0.32
		C63.89,75.65,63.9,75.84,63.72,75.8z"/>
	<path class="st0" d="M64.95,162.35c-0.3-0.04-0.63,0.09-0.88-0.25C64.35,162.23,64.77,161.56,64.95,162.35L64.95,162.35z"/>
	<path class="st0" d="M82.87,172.36c-0.06,0.06-0.14,0.13-0.22,0.2c-0.05-0.09-0.14-0.17-0.15-0.27c-0.01-0.05,0.08-0.15,0.15-0.18
		C82.81,172.05,82.85,172.18,82.87,172.36z"/>
	<path class="st0" d="M110.3,172.37c-0.14,0.07-0.28,0.15-0.43,0.23c-0.03-0.07-0.09-0.19-0.07-0.21c0.12-0.12,0.27-0.21,0.4-0.32
		C110.23,172.15,110.26,172.23,110.3,172.37z"/>
	<path class="st0" d="M75.56,136.47c0.03-0.22,0.06-0.48,0.37-0.27c0.11,0.08,0.22,0.37,0.2,0.38
		C75.92,136.75,75.76,136.52,75.56,136.47C75.56,136.47,75.56,136.47,75.56,136.47z"/>
	<path class="st0" d="M153.09,149.26c-0.1-0.03-0.31-0.01-0.21-0.16c0.07-0.11,0.29-0.13,0.46-0.17c0.05-0.01,0.17,0.09,0.16,0.11
		C153.45,149.26,153.26,149.25,153.09,149.26z"/>
	<path class="st0" d="M89.75,108.45c0.37,0.2,0.12,0.47,0.28,0.77C89.47,108.97,89.89,108.68,89.75,108.45z"/>
	<path class="st0" d="M144.99,140c0.23,0.43,0.34,0.75,0,1.17C144.99,140.72,144.99,140.37,144.99,140z"/>
	<path class="st0" d="M134.33,140.55c0.2,0.05,0.4,0.11,0.59,0.16c-0.08,0.09-0.14,0.25-0.23,0.26
		C134.4,141.02,134.36,140.78,134.33,140.55C134.33,140.56,134.33,140.55,134.33,140.55z"/>
	<path class="st0" d="M88.68,101.55c-0.05,0.02-0.17,0.12-0.26,0.1c-0.08-0.02-0.17-0.17-0.17-0.26c0.01-0.15,0.06-0.35,0.28-0.32
		C88.58,101.07,88.6,101.28,88.68,101.55z"/>
	<path class="st0" d="M128.49,142.54c-0.17,0.07-0.27,0.13-0.36,0.13c-0.06,0-0.17-0.07-0.19-0.14c-0.06-0.16,0.05-0.26,0.19-0.24
		C128.23,142.32,128.32,142.42,128.49,142.54z"/>
	<path class="st0" d="M99.5,171.61c-0.33,0.32-0.68,0.38-1.28,0C98.79,171.61,99.15,171.61,99.5,171.61L99.5,171.61z"/>
	<path class="st0" d="M65.27,169.74c0.37,0.2,0.12,0.47,0.28,0.77C64.98,170.26,65.4,169.96,65.27,169.74z"/>
	<path class="st0" d="M106.6,24.64c0.2-0.03,0.34-0.02,0.29,0.14c-0.03,0.1-0.17,0.19-0.28,0.22c-0.1,0.02-0.22-0.05-0.33-0.08
		C106.4,24.81,106.52,24.7,106.6,24.64z"/>
	<path class="st0" d="M154.36,139.34c-0.11-0.05-0.18-0.07-0.25-0.1c0.08-0.15,0.15-0.3,0.24-0.44c0.01-0.01,0.13,0.05,0.2,0.08
		C154.49,139.03,154.43,139.19,154.36,139.34z"/>
	<path class="st0" d="M108.39,172.25c-0.26,0.17-0.39,0.27-0.53,0.33c-0.11,0.05-0.27,0.03-0.24-0.13c0.02-0.09,0.16-0.19,0.26-0.23
		C107.99,172.18,108.12,172.23,108.39,172.25z"/>
	<path class="st0" d="M108.96,50.98c0.04-0.24,0.17-0.24,0.27-0.18c0.13,0.08,0.24,0.2,0.36,0.3c-0.07,0.03-0.16,0.1-0.22,0.08
		C109.22,51.13,109.08,51.04,108.96,50.98z"/>
	<path class="st0" d="M129,72.56c0.16,0.17,0.3,0.25,0.31,0.34c0.01,0.1-0.09,0.22-0.17,0.3c-0.02,0.02-0.25,0.23-0.24-0.06
		C128.9,72.98,128.95,72.83,129,72.56z"/>
	<path class="st0" d="M135.15,171.88c0.35,0.75-0.22,0.45-0.81,0.65C134.78,172.17,134.96,172.03,135.15,171.88
		C135.14,171.88,135.15,171.88,135.15,171.88z"/>
	<path class="st0" d="M90.52,89.61c-0.29-0.34-0.81-0.32-1.08-0.74c-0.33-0.51-0.76-0.72-1.3-0.15c-0.22,0.24-0.65,0.52-0.91,0.07
		c-0.28-0.49,0.5-0.38,0.55-0.75c-0.44-0.05-0.93-0.21-1.25,0.19c-0.51,0.64,0.62,0.79,0.46,1.35c-3.8-1.1-6.04-3.69-6.46-7.54
		c-0.61-5.65,1.26-10.56,5.31-14.54c2.2-2.16,3.8-2.18,5.97,0c4.18,4.19,6.16,9.27,5.19,15.2C96.4,86.33,94.12,88.66,90.52,89.61z"
		/>
	<path class="st1" d="M113.08,69.55c-0.35-0.92-0.19-1.88-0.29-2.83c-0.05-0.47-0.03-0.91-0.71-0.9c-0.72,0.01-0.62,0.49-0.64,0.93
		c-0.17,4.08-0.33,8.16-0.51,12.24c-0.02,0.41,0.16,0.9-0.3,1.28c-0.41-0.23-0.3-0.62-0.31-0.94c-0.17-3.94-0.32-7.89-0.48-11.83
		c-0.01-0.27-0.01-0.54-0.03-0.82c-0.02-0.34,0.08-0.79-0.46-0.83c-0.65-0.05-0.54,0.46-0.56,0.85c-0.11,2.81-0.2,5.62-0.32,8.43
		c-0.07,1.7-0.17,3.4-0.25,5.15c-0.77-0.22-0.53-0.72-0.55-1.06c-0.19-4.08-0.34-8.16-0.53-12.23c-0.02-0.39,0.27-1.05-0.4-1.11
		c-0.81-0.08-0.58,0.67-0.6,1.09c-0.16,3.9-0.28,7.8-0.44,11.69c-0.02,0.52,0.13,1.09-0.3,1.61c-0.6-0.31-0.38-0.87-0.4-1.29
		c-0.16-3.9-0.27-7.8-0.47-11.69c-0.02-0.5,0.42-1.46-0.68-1.43c-0.97,0.03-0.41,0.91-0.61,1.38c-0.08,0.21-0.11,0.44-0.16,0.65
		c-0.34-0.42-0.09-0.9-0.19-1.35c0.12,0.51-0.16,1.05,0.17,1.55c0.01,1.19,0.07,2.38-0.26,3.54c-0.31,0.22-0.81,0.42-0.54-0.21
		c0.85-2.03,0-4.08,0.24-6.11c0.13-1.03,1.14-1.84,2.09-1.43c1.07,0.46,2.28-0.22,3.27,0.54c0.1,0.08,0.45-0.06,0.61-0.19
		c1.33-1.1,2.53-0.01,3.8,0.03c-0.63,0.51-1.43-0.18-2.18,0.72c0.91,0,1.68,0.12,2.39-0.03c0.88-0.19,0.91,0.22,0.87,0.86
		C113.28,67.07,113.35,68.32,113.08,69.55z"/>
	<path class="st0" d="M86.44,92.35c0.86,0.08,0.81,1.02,1.34,1.42c-0.4-0.03-0.81-0.06-1.21-0.1c-0.35-0.03-0.61-0.22-0.67-0.57
		C85.84,92.7,85.96,92.38,86.44,92.35z"/>
	<path class="st0" d="M111.46,84.66c-0.26-0.16-0.52-0.32-0.78-0.48c-0.15-0.2-0.03-0.33,0.12-0.45c0.39-0.25,0.58-0.83,1.19-0.71
		c0.11,0.28,0.3,0.48,0.58,0.6C112.31,84.09,112.01,84.51,111.46,84.66z"/>
	<path class="st0" d="M89.44,93.7c0.57-0.97,1.36,0,2.02-0.24c-1.53-0.01-1.64,0.98-1.5,2.14C89.41,95.07,90.02,94.23,89.44,93.7
		L89.44,93.7z"/>
	<path class="st1" d="M77.17,58.8c0.5,0.22,0.8-0.76,1.31-0.17c0.13,0.15,0.09,0.49-0.13,0.6C77.86,59.47,77.39,59.52,77.17,58.8z"
		/>
	<path class="st1" d="M117.1,58.58c-0.49,0.94-0.92,0.88-1.34,0.65c-0.22-0.12-0.26-0.44-0.13-0.6
		C116.15,57.97,116.42,59.15,117.1,58.58z"/>
	<path class="st0" d="M90.22,100.78c-0.51-1.1-0.14-2.27-0.22-3.4C90.34,98.5,90.23,99.64,90.22,100.78z"/>
	<path class="st0" d="M87.81,89.89c0.24,0.86,0.79,1.76-0.32,2.43C88.09,91.58,87.77,90.71,87.81,89.89z"/>
	<path class="st1" d="M118.16,105.91c-0.2-0.01-0.34-0.11-0.37-0.31c-0.03-0.25,0.13-0.3,0.34-0.29c0.19,0.01,0.38,0.01,0.37,0.26
		C118.49,105.76,118.38,105.9,118.16,105.91z"/>
	<path class="st1" d="M76.33,105.53c0,0.21-0.1,0.35-0.3,0.38c-0.2,0.03-0.36-0.06-0.41-0.26c-0.06-0.24,0.08-0.33,0.29-0.33
		C76.09,105.31,76.28,105.28,76.33,105.53z"/>
	<path class="st0" d="M87.76,93.75c0.78-0.36,0.71,0.28,0.91,0.89c-0.38-0.29-0.62-0.48-0.86-0.66
		C87.75,93.91,87.74,93.83,87.76,93.75z"/>
	<path class="st1" d="M102.31,29.77c0.34-0.28,0.68-0.57,1.03-0.85c0.35,0.45,0.01,0.88-0.02,1.32l0,0c-0.82,0.14-0.71,0.94-1,1.45
		c-0.44,0.76-0.77,1.67-1.95,1.28C100.74,31.74,101.66,30.84,102.31,29.77z"/>
	<path class="st1" d="M103.36,28.89c0.68-0.78,1.47-1.43,2.41-1.88c0.98,0.76,0.54,1.29-0.33,1.58
		C104.78,28.81,104.05,28.8,103.36,28.89z"/>
	<path class="st1" d="M103.31,30.24c0.36,0.13,0.52-0.58,0.91-0.22c0.19,0.18,0.12,0.42-0.09,0.57
		C103.7,30.87,103.5,30.56,103.31,30.24C103.31,30.24,103.31,30.24,103.31,30.24z"/>
	<path class="st0" d="M132.62,147.35c-0.66-0.54-1.47-0.5-2.24-0.52c-1.2-0.03-2.4-0.01-3.6-0.28c2.04,0,4.08,0,6.12,0
		C133.08,146.91,132.82,147.12,132.62,147.35z"/>
	<path class="st0" d="M50.05,138.35c3.03,0.02,5.61,2.6,5.63,5.64c0.02,3.13-2.7,5.85-5.79,5.79c-3.09-0.07-5.66-2.72-5.63-5.81
		C44.3,140.87,46.91,138.33,50.05,138.35z"/>
	<path class="st0" d="M66.41,141.22c-0.01-2.73-0.01-2.73,2.78-2.73c2.72,0,3.59,0.53,3.86,2.36c0.25,1.68-0.81,3.08-2.51,3.19
		c-1.03,0.07-2.08-0.03-3.11,0.04c-0.88,0.06-1.1-0.31-1.04-1.1C66.45,142.4,66.41,141.81,66.41,141.22z"/>
	<path class="st1" d="M110.92,83.88c-0.08,0.1-0.16,0.2-0.24,0.3c-2.09,1.07-4.09,1.05-5.93-0.54c-1.63-1.4-1.94-3.62-0.85-6.95
		c0,1.04,0.1,2.1-0.02,3.13c-0.35,3.03,2.84,5.41,6.08,4.02c0.21-0.09,0.41-0.18,0.62-0.28C110.87,83.47,110.94,83.62,110.92,83.88z
		"/>
	<path class="st1" d="M110.92,83.88c-0.11-0.1-0.23-0.21-0.34-0.31c0.33-0.3,0.63-0.65,1-0.89c0.37-0.25,0.44,0.03,0.42,0.35
		C111.63,83.31,111.28,83.59,110.92,83.88z"/>
	<path class="st1" d="M103.06,68.1c-0.32-0.8-0.32-0.8-0.1-2.24c0.05,0.94,0.08,1.49,0.11,2.04
		C103.14,67.97,103.13,68.04,103.06,68.1z"/>
	<path class="st0" d="M140.59,135.1c0.28-0.3,0.65-0.26,1-0.26c3.59,0,7.18,0,10.77,0c0.36,0,0.73-0.04,1.01,0.26
		C149.11,135.1,144.85,135.1,140.59,135.1z"/>
	<path class="st1" d="M130.05,166.43c0,1.41-0.01,2.48,0.01,3.55c0.01,0.52-0.08,0.86-0.73,0.84c-0.55-0.02-0.96-0.05-0.95-0.78
		c0.03-2.29,0.01-4.59,0.01-7.21c1.86,1.64,3.49,3.07,5.36,4.72c0-1.42,0.03-2.57-0.01-3.72c-0.02-0.65,0.29-0.74,0.82-0.73
		c0.51,0.01,0.86,0.06,0.86,0.72c-0.02,2.29-0.01,4.58-0.01,7.2C133.57,169.45,131.94,168.06,130.05,166.43z"/>
	<path class="st0" d="M89.99,146.88c-1.38,0-2.54-0.02-3.7,0.01c-0.78,0.02-0.66-0.33-0.42-0.82c0.59-1.17,1.15-2.34,1.86-3.78
		C88.51,143.89,89.21,145.3,89.99,146.88z"/>
	<path class="st0" d="M110.28,166.95c-0.87,0.22-1.18-0.19-1.12-1.14c0.05-0.72-0.15-1.45,1.03-1.31c0.86,0.1,1.82-0.06,1.84,1.2
		C112.05,166.84,111.27,167,110.28,166.95z"/>
	<path class="st0" d="M89.31,91.87c-0.42,0.1-0.42-1.06-0.91-0.02c-0.04-0.67-0.19-1.23,0.13-1.76c0.03-0.05,0.35-0.01,0.46,0.08
		C89.55,90.64,89.52,91.24,89.31,91.87z"/>
	<path class="st0" d="M88.88,95.35c0.09-0.32-0.15-0.73,0.36-0.97C89.49,94.87,89.48,95.19,88.88,95.35z"/>
	<path class="st0" d="M89.44,93.71c-0.3,0.33-0.54,0.19-0.69-0.14c-0.05-0.11,0.05-0.41,0.13-0.43
		C89.31,93.05,89.12,93.64,89.44,93.71C89.44,93.7,89.44,93.71,89.44,93.71z"/>
	<path class="st0" d="M91.36,92.58c-0.06,0.25-0.1,0.53-0.45,0.52c-0.06,0-0.16-0.11-0.15-0.14C90.84,92.63,91.13,92.65,91.36,92.58
		C91.37,92.59,91.36,92.58,91.36,92.58z"/>
	<path class="st0" d="M50.78,165.71c-0.25-0.99,0.2-1.25,1.14-1.21c0.89,0.04,1.7,0.11,1.68,1.25c-0.02,1.13-0.85,1.16-1.72,1.23
		C50.85,167.06,50.59,166.62,50.78,165.71z"/>
	<path class="st0" d="M121.83,168.16c-0.68,0.07-1.46,0.36-1.69-0.11c-0.26-0.52,0.42-1.08,0.64-1.76
		C121.36,166.87,121.54,167.48,121.83,168.16z"/>
	<path class="st0" d="M88.63,168.18c0.22-0.75,0.49-1.31,0.93-1.88c0.35,0.61,0.98,1.18,0.7,1.78
		C90.06,168.51,89.28,168.21,88.63,168.18z"/>
	<path class="st1" d="M79.38,55.65c0.19-0.11,0.38-0.22,0.56-0.34c0.21,0.22,0.06,0.43-0.09,0.55
		C79.61,56.08,79.51,55.79,79.38,55.65z"/>
	<path class="st1" d="M92.69,84.16c1.43-3.08,0.76-5.99-0.73-8.84c-0.93-1.78-2.15-3.34-3.54-4.78c-0.22-0.23-0.89-0.38-0.4-0.91
		c0.4-0.43,0.85-0.62,1.41-0.13c0.75,0.67,1.44,1.38,1.98,2.22c1.92,2.96,3.05,6.15,2.69,9.74c-0.11,1.09-0.4,2.13-1.13,3
		C92.72,84.51,92.59,84.45,92.69,84.16z"/>
	<path class="st1" d="M92.69,84.16c0.1,0.1,0.19,0.19,0.29,0.29c-0.17,0.42-0.44,0.75-1,0.97C92.09,84.85,92.38,84.5,92.69,84.16z"
		/>
</g>
</svg>
